$MeshFormat
4.1 0 8
$EndMeshFormat
$Entities
14 21 15 4
1 0 0 5 0 
2 0 0 0 0 
3 0 10 5 0 
4 0 10 0 0 
5 10 0 5 0 
6 10 0 0 0 
7 10 10 5 0 
8 10 10 0 0 
9 9.199999999999999 1 3 0 
10 9.199999999999999 1 -2 0 
11 1.2 9 3 0 
12 1.2 9 -2 0 
13 1.2 9 3 0 
14 1.2 9 -2 0 
1 0 0 0 0 0 5 0 2 2 -1 
2 0 0 5 0 10 5 0 2 1 -3 
3 0 10 0 0 10 5 0 2 4 -3 
4 0 0 0 0 10 0 0 2 2 -4 
5 10 0 0 10 0 5 0 2 6 -5 
6 10 0 5 10 10 5 0 2 5 -7 
7 10 10 0 10 10 5 0 2 8 -7 
8 10 0 0 10 10 0 0 2 6 -8 
9 0 0 0 10 0 0 0 2 2 -6 
10 0 0 5 10 0 5 0 2 1 -5 
11 0 10 0 10 10 0 0 2 4 -8 
12 0 10 5 10 10 5 0 2 3 -7 
13 8.799999900000001 0.7999999000000001 2.9999999 9.200000099999999 1.2000001 3.0000001 0 2 9 -9 
14 9.1999999 0.9999999000000001 -2.0000001 9.200000099999999 1.0000001 3.0000001 0 2 10 -9 
15 8.799999900000001 0.7999999000000001 -2.0000001 9.200000099999999 1.2000001 -1.9999999 0 2 10 -10 
16 0.7999999000000001 8.799999900000001 2.9999999 1.2000001 9.200000099999999 3.0000001 0 2 11 -11 
17 1.1999999 8.999999900000001 -2.0000001 1.2000001 9.000000099999999 3.0000001 0 2 12 -11 
18 0.7999999000000001 8.799999900000001 -2.0000001 1.2000001 9.200000099999999 -1.9999999 0 2 12 -12 
19 0.7999999000000001 8.799999900000001 2.9999999 1.2000001 9.200000099999999 3.0000001 0 2 13 -13 
20 1.1999999 8.999999900000001 -2.0000001 1.2000001 9.000000099999999 3.0000001 0 2 14 -13 
21 0.7999999000000001 8.799999900000001 -2.0000001 1.2000001 9.200000099999999 -1.9999999 0 2 14 -14 
1 0 0 0 0 10 5 0 4 -1 4 3 -2 
2 10 0 0 10 10 5 0 4 -5 8 7 -6 
3 0 0 0 10 0 5 0 4 -9 1 10 -5 
4 0 10 0 10 10 5 0 4 -11 3 12 -7 
5 0 0 0 10 10 0 0 4 -4 9 8 -11 
6 0 0 5 10 10 5 0 4 -2 10 6 -12 
7 8.799999900000001 0.7999999000000001 -2.0000001 9.200000099999999 1.2000001 3.0000001 0 4 -13 -14 15 14 
8 8.799999900000001 0.7999999000000001 2.9999999 9.200000099999999 1.2000001 3.0000001 0 1 13 
9 8.799999900000001 0.7999999000000001 -2.0000001 9.200000099999999 1.2000001 -1.9999999 0 1 15 
10 0.7999999000000001 8.799999900000001 -2.0000001 1.2000001 9.200000099999999 3.0000001 0 4 -16 -17 18 17 
11 0.7999999000000001 8.799999900000001 2.9999999 1.2000001 9.200000099999999 3.0000001 0 1 16 
12 0.7999999000000001 8.799999900000001 -2.0000001 1.2000001 9.200000099999999 -1.9999999 0 1 18 
13 0.7999999000000001 8.799999900000001 -2.0000001 1.2000001 9.200000099999999 3.0000001 0 4 -19 -20 21 20 
14 0.7999999000000001 8.799999900000001 2.9999999 1.2000001 9.200000099999999 3.0000001 0 1 19 
15 0.7999999000000001 8.799999900000001 -2.0000001 1.2000001 9.200000099999999 -1.9999999 0 1 21 
1 0 0 0 10 10 5 0 6 -1 2 -3 4 -5 6 
2 8.799999900000001 0.7999999000000001 -2.0000001 9.200000099999999 1.2000001 3.0000001 0 3 7 8 -9 
3 0.7999999000000001 8.799999900000001 -2.0000001 1.2000001 9.200000099999999 3.0000001 0 3 10 11 -12 
4 0.7999999000000001 8.799999900000001 -2.0000001 1.2000001 9.200000099999999 3.0000001 0 3 13 14 -15 
$EndEntities
$Nodes
54 610 1 305
0 1 0 2
1
1
0 0 5
0 0 5
0 2 0 2
2
2
0 0 0
0 0 0
0 3 0 2
3
3
0 10 5
0 10 5
0 4 0 2
4
4
0 10 0
0 10 0
0 5 0 2
5
5
10 0 5
10 0 5
0 6 0 2
6
6
10 0 0
10 0 0
0 7 0 2
7
7
10 10 5
10 10 5
0 8 0 2
8
8
10 10 0
10 10 0
0 9 0 0
0 10 0 0
0 11 0 0
0 12 0 0
0 13 0 0
0 14 0 0
1 1 0 6
9
10
11
9
10
11
0 0 1.249999999999996
0 0 2.499999999999992
0 0 3.749999999999993
0 0 1.249999999999996
0 0 2.499999999999992
0 0 3.749999999999993
1 2 0 12
12
13
14
15
16
17
12
13
14
15
16
17
0 1.428571428571424 5
0 2.857142857142848 5
0 4.285714285714271 5
0 5.714285714285696 5
0 7.142857142857129 5
0 8.571428571428564 5
0 1.428571428571424 5
0 2.857142857142848 5
0 4.285714285714271 5
0 5.714285714285696 5
0 7.142857142857129 5
0 8.571428571428564 5
1 3 0 6
18
19
20
18
19
20
0 10 1.249999999999996
0 10 2.499999999999992
0 10 3.749999999999993
0 10 1.249999999999996
0 10 2.499999999999992
0 10 3.749999999999993
1 4 0 12
21
22
23
24
25
26
21
22
23
24
25
26
0 1.428571428571424 0
0 2.857142857142848 0
0 4.285714285714271 0
0 5.714285714285696 0
0 7.142857142857129 0
0 8.571428571428564 0
0 1.428571428571424 0
0 2.857142857142848 0
0 4.285714285714271 0
0 5.714285714285696 0
0 7.142857142857129 0
0 8.571428571428564 0
1 5 0 6
27
28
29
27
28
29
10 0 1.249999999999996
10 0 2.499999999999992
10 0 3.749999999999993
10 0 1.249999999999996
10 0 2.499999999999992
10 0 3.749999999999993
1 6 0 12
30
31
32
33
34
35
30
31
32
33
34
35
10 1.428571428571424 5
10 2.857142857142848 5
10 4.285714285714271 5
10 5.714285714285696 5
10 7.142857142857129 5
10 8.571428571428564 5
10 1.428571428571424 5
10 2.857142857142848 5
10 4.285714285714271 5
10 5.714285714285696 5
10 7.142857142857129 5
10 8.571428571428564 5
1 7 0 6
36
37
38
36
37
38
10 10 1.249999999999996
10 10 2.499999999999992
10 10 3.749999999999993
10 10 1.249999999999996
10 10 2.499999999999992
10 10 3.749999999999993
1 8 0 12
39
40
41
42
43
44
39
40
41
42
43
44
10 1.428571428571424 0
10 2.857142857142848 0
10 4.285714285714271 0
10 5.714285714285696 0
10 7.142857142857129 0
10 8.571428571428564 0
10 1.428571428571424 0
10 2.857142857142848 0
10 4.285714285714271 0
10 5.714285714285696 0
10 7.142857142857129 0
10 8.571428571428564 0
1 9 0 12
45
46
47
48
49
50
45
46
47
48
49
50
1.428571428571424 0 0
2.857142857142848 0 0
4.285714285714271 0 0
5.714285714285696 0 0
7.142857142857129 0 0
8.571428571428564 0 0
1.428571428571424 0 0
2.857142857142848 0 0
4.285714285714271 0 0
5.714285714285696 0 0
7.142857142857129 0 0
8.571428571428564 0 0
1 10 0 12
51
52
53
54
55
56
51
52
53
54
55
56
1.428571428571424 0 5
2.857142857142848 0 5
4.285714285714271 0 5
5.714285714285696 0 5
7.142857142857129 0 5
8.571428571428564 0 5
1.428571428571424 0 5
2.857142857142848 0 5
4.285714285714271 0 5
5.714285714285696 0 5
7.142857142857129 0 5
8.571428571428564 0 5
1 11 0 12
57
58
59
60
61
62
57
58
59
60
61
62
1.428571428571424 10 0
2.857142857142848 10 0
4.285714285714271 10 0
5.714285714285696 10 0
7.142857142857129 10 0
8.571428571428564 10 0
1.428571428571424 10 0
2.857142857142848 10 0
4.285714285714271 10 0
5.714285714285696 10 0
7.142857142857129 10 0
8.571428571428564 10 0
1 12 0 12
63
64
65
66
67
68
63
64
65
66
67
68
1.428571428571424 10 5
2.857142857142848 10 5
4.285714285714271 10 5
5.714285714285696 10 5
7.142857142857129 10 5
8.571428571428564 10 5
1.428571428571424 10 5
2.857142857142848 10 5
4.285714285714271 10 5
5.714285714285696 10 5
7.142857142857129 10 5
8.571428571428564 10 5
1 13 0 0
1 14 0 0
1 15 0 0
1 16 0 0
1 17 0 0
1 18 0 0
1 19 0 0
1 20 0 0
1 21 0 0
2 1 0 48
69
70
71
72
73
74
75
76
77
78
79
80
81
82
83
84
85
86
87
88
89
90
91
92
69
70
71
72
73
74
75
76
77
78
79
80
81
82
83
84
85
86
87
88
89
90
91
92
0 3.588136953728799 3.757150206211334
0 6.415697865785106 1.263645357133009
0 7.916588563010262 3.72395890029825
0 2.08070540620147 1.272886332786718
0 8.98296080626859 1.907300412187266
0 1.017083238879856 3.092699329693556
0 6.443757207906886 3.761797851041821
0 7.069985792158627 2.496178083296304
0 5.702970521798457 2.52000779936955
0 4.992415058597163 1.271409128883675
0 3.552351822406382 1.226165182080262
0 2.933006721782998 2.517099232826481
0 5.003426881270762 3.762600290616031
0 4.29538465993076 2.509071973331222
0 7.912565416754909 1.292892355051562
0 2.088453961744325 3.711974941038856
0 9.017526894190668 3.0846576743857
0 0.9820734866844771 1.914816229989424
0 0.9068217258391211 4.110934854146481
0 9.093390958890412 0.8900385534477646
0 9.101108805725898 4.111723314936788
0 0.8982700642914742 0.8875405125552274
0 1.820264563058625 2.501895213267007
0 8.179925494476612 2.500997485043816
0 3.588136953728799 3.757150206211334
0 6.415697865785106 1.263645357133009
0 7.916588563010262 3.72395890029825
0 2.08070540620147 1.272886332786718
0 8.98296080626859 1.907300412187266
0 1.017083238879856 3.092699329693556
0 6.443757207906886 3.761797851041821
0 7.069985792158627 2.496178083296304
0 5.702970521798457 2.52000779936955
0 4.992415058597163 1.271409128883675
0 3.552351822406382 1.226165182080262
0 2.933006721782998 2.517099232826481
0 5.003426881270762 3.762600290616031
0 4.29538465993076 2.509071973331222
0 7.912565416754909 1.292892355051562
0 2.088453961744325 3.711974941038856
0 9.017526894190668 3.0846576743857
0 0.9820734866844771 1.914816229989424
0 0.9068217258391211 4.110934854146481
0 9.093390958890412 0.8900385534477646
0 9.101108805725898 4.111723314936788
0 0.8982700642914742 0.8875405125552274
0 1.820264563058625 2.501895213267007
0 8.179925494476612 2.500997485043816
2 2 0 48
93
94
95
96
97
98
99
100
101
102
103
104
105
106
107
108
109
110
111
112
113
114
115
116
93
94
95
96
97
98
99
100
101
102
103
104
105
106
107
108
109
110
111
112
113
114
115
116
10 3.588136953728799 3.757150206211334
10 6.415697865785106 1.263645357133009
10 7.916588563010262 3.72395890029825
10 2.080705406201471 1.272886332786718
10 8.98296080626859 1.907300412187266
10 1.017083238879857 3.092699329693556
10 6.443757207906886 3.761797851041821
10 7.069985792158627 2.496178083296304
10 5.702970521798457 2.52000779936955
10 4.992415058597163 1.271409128883675
10 3.552351822406382 1.226165182080262
10 2.933006721782998 2.517099232826481
10 5.003426881270762 3.762600290616031
10 4.29538465993076 2.509071973331222
10 7.912565416754909 1.292892355051562
10 2.088453961744326 3.711974941038856
10 9.017526894190668 3.0846576743857
10 0.9820734866844776 1.914816229989424
10 0.9068217258391211 4.110934854146481
10 9.093390958890412 0.8900385534477646
10 9.101108805725898 4.111723314936788
10 0.8982700642914745 0.8875405125552276
10 1.820264563058626 2.501895213267007
10 8.179925494476612 2.500997485043816
10 3.588136953728799 3.757150206211334
10 6.415697865785106 1.263645357133009
10 7.916588563010262 3.72395890029825
10 2.080705406201471 1.272886332786718
10 8.98296080626859 1.907300412187266
10 1.017083238879857 3.092699329693556
10 6.443757207906886 3.761797851041821
10 7.069985792158627 2.496178083296304
10 5.702970521798457 2.52000779936955
10 4.992415058597163 1.271409128883675
10 3.552351822406382 1.226165182080262
10 2.933006721782998 2.517099232826481
10 5.003426881270762 3.762600290616031
10 4.29538465993076 2.509071973331222
10 7.912565416754909 1.292892355051562
10 2.088453961744326 3.711974941038856
10 9.017526894190668 3.0846576743857
10 0.9820734866844776 1.914816229989424
10 0.9068217258391211 4.110934854146481
10 9.093390958890412 0.8900385534477646
10 9.101108805725898 4.111723314936788
10 0.8982700642914745 0.8875405125552276
10 1.820264563058626 2.501895213267007
10 8.179925494476612 2.500997485043816
2 3 0 48
117
118
119
120
121
122
123
124
125
126
127
128
129
130
131
132
133
134
135
136
137
138
139
140
117
118
119
120
121
122
123
124
125
126
127
128
129
130
131
132
133
134
135
136
137
138
139
140
3.586291030957457 0 1.251960917040403
6.413726422936495 0 1.243574105205344
7.919294731770526 0 3.727107205542125
2.080705268229459 0 3.727107205542127
5.000017453893965 0 3.757784516650625
8.982916980985099 0 1.90730066901795
1.017083019014894 0 1.90730066901795
6.445385154304216 0 3.768648977699669
7.066923966385968 0 2.483990131406018
3.56106872453349 0 3.762299705965404
2.934172042963275 0 2.492716533257875
5.000020362876295 0 1.249095414385004
5.701982061579181 0 2.504628718813995
4.28879683178808 0 2.519056978904514
7.911802553096951 0 1.288284154193967
2.088356513080639 0 1.290728899006385
9.017926792819974 0 3.085182691562144
0.9820732071800193 0 3.085182691562144
9.093229621102122 0 0.8891169646423824
0.9068021921333914 0 0.8896059136048662
0.8982699807961805 0 4.112457979420853
9.101730019203814 0 4.112457979420853
8.179773005011702 0 2.498372970344441
1.820478010093657 0 2.500607199677296
3.586291030957457 0 1.251960917040403
6.413726422936495 0 1.243574105205344
7.919294731770526 0 3.727107205542125
2.080705268229459 0 3.727107205542127
5.000017453893965 0 3.757784516650625
8.982916980985099 0 1.90730066901795
1.017083019014894 0 1.90730066901795
6.445385154304216 0 3.768648977699669
7.066923966385968 0 2.483990131406018
3.56106872453349 0 3.762299705965404
2.934172042963275 0 2.492716533257875
5.000020362876295 0 1.249095414385004
5.701982061579181 0 2.504628718813995
4.28879683178808 0 2.519056978904514
7.911802553096951 0 1.288284154193967
2.088356513080639 0 1.290728899006385
9.017926792819974 0 3.085182691562144
0.9820732071800193 0 3.085182691562144
9.093229621102122 0 0.8891169646423824
0.9068021921333914 0 0.8896059136048662
0.8982699807961805 0 4.112457979420853
9.101730019203814 0 4.112457979420853
8.179773005011702 0 2.498372970344441
1.820478010093657 0 2.500607199677296
2 4 0 48
141
142
143
144
145
146
147
148
149
150
151
152
153
154
155
156
157
158
159
160
161
162
163
164
141
142
143
144
145
146
147
148
149
150
151
152
153
154
155
156
157
158
159
160
161
162
163
164
3.588136953728799 10 1.242849793788666
6.415697865785104 10 3.73635464286699
7.916588563010263 10 1.276041099701743
2.080705406201471 10 3.727113667213275
8.98296080626859 10 3.092699587812722
1.017083238879857 10 1.907300670306432
6.443757207906885 10 1.238202148958178
7.069985792158627 10 2.503821916703691
5.702970521798457 10 2.479992200630448
4.992415058597162 10 3.728590871116324
3.552351822406381 10 3.773834817919738
2.933006721782999 10 2.482900767173514
5.003426881270762 10 1.237399709383967
4.295384659930759 10 2.490928026668776
7.91256541675491 10 3.707107644948431
2.088453961744325 10 1.288025058961138
9.01752689419067 10 1.915342325614287
0.9820734866844782 10 3.085183770010564
9.093390958890412 10 4.109961446552229
0.9068217258391214 10 0.8890651458535134
0.8982700642914747 10 4.112459487444766
9.1011088057259 10 0.8882766850632052
1.820264563058626 10 2.498104786732984
8.179925494476612 10 2.499002514956175
3.588136953728799 10 1.242849793788666
6.415697865785104 10 3.73635464286699
7.916588563010263 10 1.276041099701743
2.080705406201471 10 3.727113667213275
8.98296080626859 10 3.092699587812722
1.017083238879857 10 1.907300670306432
6.443757207906885 10 1.238202148958178
7.069985792158627 10 2.503821916703691
5.702970521798457 10 2.479992200630448
4.992415058597162 10 3.728590871116324
3.552351822406381 10 3.773834817919738
2.933006721782999 10 2.482900767173514
5.003426881270762 10 1.237399709383967
4.295384659930759 10 2.490928026668776
7.91256541675491 10 3.707107644948431
2.088453961744325 10 1.288025058961138
9.01752689419067 10 1.915342325614287
0.9820734866844782 10 3.085183770010564
9.093390958890412 10 4.109961446552229
0.9068217258391214 10 0.8890651458535134
0.8982700642914747 10 4.112459487444766
9.1011088057259 10 0.8882766850632052
1.820264563058626 10 2.498104786732984
8.179925494476612 10 2.499002514956175
2 5 0 92
165
166
167
168
169
170
171
172
173
174
175
176
177
178
179
180
181
182
183
184
185
186
187
188
189
190
191
192
193
194
195
196
197
198
199
200
201
202
203
204
205
206
207
208
209
210
165
166
167
168
169
170
171
172
173
174
175
176
177
178
179
180
181
182
183
184
185
186
187
188
189
190
191
192
193
194
195
196
197
198
199
200
201
202
203
204
205
206
207
208
209
210
1.23110541175516 5.010520020224183 0
8.740599863052839 4.992753193117593 0
4.975493791211755 8.719485907584001 0
4.98177299307165 1.265427876294626 0
1.20528043487883 7.801892664864541 0
7.710799917249002 1.287341333529855 0
8.744090508054931 7.801892664864532 0
2.304843984163029 1.281705103897098 0
1.230850406614654 6.421116399895727 0
2.472291216834105 5.714796546210448 0
2.429924675024746 4.277245950752411 0
3.69122867196212 4.976921519292008 0
3.707808136036918 6.4248101537742 0
4.944710246123615 5.709812421701487 0
4.93210541713167 4.259370093297114 0
6.198899606610845 4.994863752499743 0
6.187395327711263 6.42696983855732 0
6.201734641981465 3.566181831442313 0
4.94591548660801 2.780461200384185 0
6.281978226177069 2.120446233108509 0
7.546180202563581 2.815234200331663 0
3.627973047137744 2.085843731981849 0
7.44657680515088 5.712620875667029 0
7.441868901489787 7.133104372705273 0
6.185895741317413 7.857142857142819 0
7.626087828639593 8.680176440087861 0
3.659139839400654 3.540422958465973 0
2.398017680552103 2.831891201316964 0
8.697178032957387 6.42228617279495 0
7.521715604194102 4.285714285714249 0
8.756980763003735 3.541543918060004 0
2.467020989280325 7.131864532219383 0
3.690804396256417 7.838914151053914 0
2.323719363644853 8.681417582663219 0
4.94871659305393 7.142857142857101 0
1.204089262617484 3.572349180863564 0
1.165487808372891 2.171580770030707 0
8.82895918748701 2.161673249255006 0
6.36633879872811 0.9346430885865979 0
3.591525644083634 9.044833397950036 0
6.328924043662318 9.051361040962936 0
3.57142857142856 0.8838577660090765 0
1.04578686795554 8.954213132044456 0
8.954213132044456 8.954213132044456 0
1.045786867955536 1.045786867955536 0
8.959794242105749 1.040205757894243 0
1.23110541175516 5.010520020224183 0
8.740599863052839 4.992753193117593 0
4.975493791211755 8.719485907584001 0
4.98177299307165 1.265427876294626 0
1.20528043487883 7.801892664864541 0
7.710799917249002 1.287341333529855 0
8.744090508054931 7.801892664864532 0
2.304843984163029 1.281705103897098 0
1.230850406614654 6.421116399895727 0
2.472291216834105 5.714796546210448 0
2.429924675024746 4.277245950752411 0
3.69122867196212 4.976921519292008 0
3.707808136036918 6.4248101537742 0
4.944710246123615 5.709812421701487 0
4.93210541713167 4.259370093297114 0
6.198899606610845 4.994863752499743 0
6.187395327711263 6.42696983855732 0
6.201734641981465 3.566181831442313 0
4.94591548660801 2.780461200384185 0
6.281978226177069 2.120446233108509 0
7.546180202563581 2.815234200331663 0
3.627973047137744 2.085843731981849 0
7.44657680515088 5.712620875667029 0
7.441868901489787 7.133104372705273 0
6.185895741317413 7.857142857142819 0
7.626087828639593 8.680176440087861 0
3.659139839400654 3.540422958465973 0
2.398017680552103 2.831891201316964 0
8.697178032957387 6.42228617279495 0
7.521715604194102 4.285714285714249 0
8.756980763003735 3.541543918060004 0
2.467020989280325 7.131864532219383 0
3.690804396256417 7.838914151053914 0
2.323719363644853 8.681417582663219 0
4.94871659305393 7.142857142857101 0
1.204089262617484 3.572349180863564 0
1.165487808372891 2.171580770030707 0
8.82895918748701 2.161673249255006 0
6.36633879872811 0.9346430885865979 0
3.591525644083634 9.044833397950036 0
6.328924043662318 9.051361040962936 0
3.57142857142856 0.8838577660090765 0
1.04578686795554 8.954213132044456 0
8.954213132044456 8.954213132044456 0
1.045786867955536 1.045786867955536 0
8.959794242105749 1.040205757894243 0
2 6 0 92
211
212
213
214
215
216
217
218
219
220
221
222
223
224
225
226
227
228
229
230
231
232
233
234
235
236
237
238
239
240
241
242
243
244
245
246
247
248
249
250
251
252
253
254
255
256
211
212
213
214
215
216
217
218
219
220
221
222
223
224
225
226
227
228
229
230
231
232
233
234
235
236
237
238
239
240
241
242
243
244
245
246
247
248
249
250
251
252
253
254
255
256
1.23110541175516 5.010520020224183 5
8.740266011073336 4.99275319311759 5
4.978021397023109 8.704865593677958 5
4.98177299307165 1.265427876294626 5
1.20528043487883 7.801892664864541 5
7.710799917249002 1.287341333529855 5
7.704611174415671 8.704656139396725 5
2.304843984163029 1.281705103897098 5
1.230850406614654 6.421116399895727 5
2.472291216834105 5.714796546210448 5
2.429924675024746 4.277245950752411 5
3.69122867196212 4.976921519292008 5
3.707808136036918 6.4248101537742 5
4.944710246123615 5.709812421701487 5
4.93210541713167 4.259370093297114 5
6.198899606610845 4.994863752499743 5
6.187395327711262 6.426969838557321 5
6.201734641981465 3.566181831442313 5
4.94591548660801 2.780461200384185 5
6.281978226177069 2.120446233108509 5
7.546180202563581 2.815234200331663 5
3.627973047137744 2.085843731981849 5
7.439499731377611 5.713096543843782 5
7.496134102690011 7.152012959425105 5
6.2905750039109 7.860873229009487 5
3.659139839400654 3.540422958465973 5
2.398017680552103 2.831891201316964 5
8.703921063486248 6.422212409110465 5
7.521715604194102 4.285714285714249 5
8.756941018720461 3.541543918060003 5
2.467020989280325 7.131864532219383 5
3.691225663891642 7.836477432069573 5
2.3237795447356 8.681069479951169 5
4.966622629116241 7.16063477813167 5
1.204089262617484 3.572349180863564 5
8.806766204877784 7.812299837137507 5
1.165487808372891 2.171580770030707 5
8.828952563439799 2.161673249255006 5
6.3660700864985 9.054078992416834 5
6.36633879872811 0.9346430885865979 5
3.585940279642071 9.043414458174819 5
3.57142857142856 0.8838577660090765 5
8.954213132044455 8.954213132044455 5
1.04578686795554 8.954213132044456 5
1.045786867955536 1.045786867955536 5
8.959794242105749 1.040205757894243 5
1.23110541175516 5.010520020224183 5
8.740266011073336 4.99275319311759 5
4.978021397023109 8.704865593677958 5
4.98177299307165 1.265427876294626 5
1.20528043487883 7.801892664864541 5
7.710799917249002 1.287341333529855 5
7.704611174415671 8.704656139396725 5
2.304843984163029 1.281705103897098 5
1.230850406614654 6.421116399895727 5
2.472291216834105 5.714796546210448 5
2.429924675024746 4.277245950752411 5
3.69122867196212 4.976921519292008 5
3.707808136036918 6.4248101537742 5
4.944710246123615 5.709812421701487 5
4.93210541713167 4.259370093297114 5
6.198899606610845 4.994863752499743 5
6.187395327711262 6.426969838557321 5
6.201734641981465 3.566181831442313 5
4.94591548660801 2.780461200384185 5
6.281978226177069 2.120446233108509 5
7.546180202563581 2.815234200331663 5
3.627973047137744 2.085843731981849 5
7.439499731377611 5.713096543843782 5
7.496134102690011 7.152012959425105 5
6.2905750039109 7.860873229009487 5
3.659139839400654 3.540422958465973 5
2.398017680552103 2.831891201316964 5
8.703921063486248 6.422212409110465 5
7.521715604194102 4.285714285714249 5
8.756941018720461 3.541543918060003 5
2.467020989280325 7.131864532219383 5
3.691225663891642 7.836477432069573 5
2.3237795447356 8.681069479951169 5
4.966622629116241 7.16063477813167 5
1.204089262617484 3.572349180863564 5
8.806766204877784 7.812299837137507 5
1.165487808372891 2.171580770030707 5
8.828952563439799 2.161673249255006 5
6.3660700864985 9.054078992416834 5
6.36633879872811 0.9346430885865979 5
3.585940279642071 9.043414458174819 5
3.57142857142856 0.8838577660090765 5
8.954213132044455 8.954213132044455 5
1.04578686795554 8.954213132044456 5
1.045786867955536 1.045786867955536 5
8.959794242105749 1.040205757894243 5
2 7 0 0
2 8 0 0
2 9 0 0
2 10 0 0
2 11 0 0
2 12 0 0
2 13 0 0
2 14 0 0
2 15 0 0
3 1 0 98
257
258
259
260
261
262
263
264
265
266
267
268
269
270
271
272
273
274
275
276
277
278
279
280
281
282
283
284
285
286
287
288
289
290
291
292
293
294
295
296
297
298
299
300
301
302
303
304
305
257
258
259
260
261
262
263
264
265
266
267
268
269
270
271
272
273
274
275
276
277
278
279
280
281
282
283
284
285
286
287
288
289
290
291
292
293
294
295
296
297
298
299
300
301
302
303
304
305
2.862646205245714 4.98389266467745 2.5
5.774294112911382 5.707552096605577 2.5
2.377119081124435 2.377208181547686 2.467594591870856
7.623228668742842 2.376759229703907 2.50045219520762
7.6244523562852 7.624326855799181 2.385501924841725
2.375644481057748 7.624472741520002 2.609803222429191
4.819617314244226 3.329353904820045 2.5
5.001714147587623 7.843032041601816 2.811948608311875
7.888261384269099 5.002291938522097 2.113682034711428
4.055952273495744 6.401964610837307 1.912636231545783
6.536402851139739 4.020903456906116 3.128636240840318
5.583436043734926 1.749133695617651 1.746909042982409
4.385836078524269 1.695970937573179 3.28688041111609
1.737761645294085 6.176180934477282 1.723992841080116
4.438422678549869 4.8630927251317 3.364718351729501
1.56788511931433 5.715879115554747 3.429748318175807
1.70662716323796 3.860366614858878 1.702638485252033
8.306595524864548 6.261468166164252 3.283686439598056
1.774146040165705 3.99933393254825 3.424621789451775
1.489260935716036 8.51071872042559 1.490417819442449
8.507469422386333 8.487263897496586 3.439105257787778
4.139651840182251 4.730878055047478 1.412694960572338
8.30598412573484 3.782323505918554 3.314061401097097
1.495785435475035 1.475910403835073 3.467079650020845
8.536923232142993 8.556117193969493 1.475376581449884
8.530746344200965 1.488979878059744 1.521269359714397
8.511207925731497 1.469069313254371 3.479048550831893
6.385548249067856 7.026462784617243 3.407099870139591
1.442577150829823 1.461709561105121 1.474597533410236
6.108272357135703 7.187308508661163 1.619303412491423
3.719189292645852 8.304313415310304 1.697631187022136
5.971275944693624 4.307896346357936 1.544820262537553
3.220641212202163 6.380723432927523 3.381995726099558
1.45405409617439 8.545905162228451 3.519366748897411
3.389132849046015 3.555329056491471 3.345155078450476
3.746952074018025 1.67115604386542 1.67731224147056
6.022953946439452 2.373683780492672 3.303979679196778
8.398575269410827 3.521462397854806 1.606691606616023
3.370758680925163 3.38069023605951 1.372998726329951
4.817740703813767 6.435523743465787 3.569568208824525
8.413035458649116 6.44708093827168 1.596527512898243
6.439006668293386 8.575448867663226 2.941475776634833
3.57796291614564 8.382913591523661 3.447319919204737
6.955077501711733 5.488069921761515 3.518576008179819
5.723528363019409 8.649167075982946 1.352105480720959
6.633937467523273 2.876366475860904 1.363337633010276
6.831290042510875 5.852779671623671 1.398021831074299
1.290340208480751 7.112842956516221 3.722432564302689
7.028025663297853 1.339910783575968 1.576279159521001
2.862646205245714 4.98389266467745 2.5
5.774294112911382 5.707552096605577 2.5
2.377119081124435 2.377208181547686 2.467594591870856
7.623228668742842 2.376759229703907 2.50045219520762
7.6244523562852 7.624326855799181 2.385501924841725
2.375644481057748 7.624472741520002 2.609803222429191
4.819617314244226 3.329353904820045 2.5
5.001714147587623 7.843032041601816 2.811948608311875
7.888261384269099 5.002291938522097 2.113682034711428
4.055952273495744 6.401964610837307 1.912636231545783
6.536402851139739 4.020903456906116 3.128636240840318
5.583436043734926 1.749133695617651 1.746909042982409
4.385836078524269 1.695970937573179 3.28688041111609
1.737761645294085 6.176180934477282 1.723992841080116
4.438422678549869 4.8630927251317 3.364718351729501
1.56788511931433 5.715879115554747 3.429748318175807
1.70662716323796 3.860366614858878 1.702638485252033
8.306595524864548 6.261468166164252 3.283686439598056
1.774146040165705 3.99933393254825 3.424621789451775
1.489260935716036 8.51071872042559 1.490417819442449
8.507469422386333 8.487263897496586 3.439105257787778
4.139651840182251 4.730878055047478 1.412694960572338
8.30598412573484 3.782323505918554 3.314061401097097
1.495785435475035 1.475910403835073 3.467079650020845
8.536923232142993 8.556117193969493 1.475376581449884
8.530746344200965 1.488979878059744 1.521269359714397
8.511207925731497 1.469069313254371 3.479048550831893
6.385548249067856 7.026462784617243 3.407099870139591
1.442577150829823 1.461709561105121 1.474597533410236
6.108272357135703 7.187308508661163 1.619303412491423
3.719189292645852 8.304313415310304 1.697631187022136
5.971275944693624 4.307896346357936 1.544820262537553
3.220641212202163 6.380723432927523 3.381995726099558
1.45405409617439 8.545905162228451 3.519366748897411
3.389132849046015 3.555329056491471 3.345155078450476
3.746952074018025 1.67115604386542 1.67731224147056
6.022953946439452 2.373683780492672 3.303979679196778
8.398575269410827 3.521462397854806 1.606691606616023
3.370758680925163 3.38069023605951 1.372998726329951
4.817740703813767 6.435523743465787 3.569568208824525
8.413035458649116 6.44708093827168 1.596527512898243
6.439006668293386 8.575448867663226 2.941475776634833
3.57796291614564 8.382913591523661 3.447319919204737
6.955077501711733 5.488069921761515 3.518576008179819
5.723528363019409 8.649167075982946 1.352105480720959
6.633937467523273 2.876366475860904 1.363337633010276
6.831290042510875 5.852779671623671 1.398021831074299
1.290340208480751 7.112842956516221 3.722432564302689
7.028025663297853 1.339910783575968 1.576279159521001
3 2 0 0
3 3 0 0
3 4 0 0
$EndNodes
$Elements
27 3100 1 1550
0 1 15 2
1 1 
1 1 
0 2 15 2
2 2 
2 2 
0 3 15 2
3 3 
3 3 
0 4 15 2
4 4 
4 4 
0 5 15 2
5 5 
5 5 
0 6 15 2
6 6 
6 6 
0 7 15 2
7 7 
7 7 
0 8 15 2
8 8 
8 8 
1 1 1 8
9 2 9 
10 9 10 
11 10 11 
12 11 1 
9 2 9 
10 9 10 
11 10 11 
12 11 1 
1 2 1 14
13 1 12 
14 12 13 
15 13 14 
16 14 15 
17 15 16 
18 16 17 
19 17 3 
13 1 12 
14 12 13 
15 13 14 
16 14 15 
17 15 16 
18 16 17 
19 17 3 
1 3 1 8
20 4 18 
21 18 19 
22 19 20 
23 20 3 
20 4 18 
21 18 19 
22 19 20 
23 20 3 
1 4 1 14
24 2 21 
25 21 22 
26 22 23 
27 23 24 
28 24 25 
29 25 26 
30 26 4 
24 2 21 
25 21 22 
26 22 23 
27 23 24 
28 24 25 
29 25 26 
30 26 4 
1 5 1 8
31 6 27 
32 27 28 
33 28 29 
34 29 5 
31 6 27 
32 27 28 
33 28 29 
34 29 5 
1 6 1 14
35 5 30 
36 30 31 
37 31 32 
38 32 33 
39 33 34 
40 34 35 
41 35 7 
35 5 30 
36 30 31 
37 31 32 
38 32 33 
39 33 34 
40 34 35 
41 35 7 
1 7 1 8
42 8 36 
43 36 37 
44 37 38 
45 38 7 
42 8 36 
43 36 37 
44 37 38 
45 38 7 
1 8 1 14
46 6 39 
47 39 40 
48 40 41 
49 41 42 
50 42 43 
51 43 44 
52 44 8 
46 6 39 
47 39 40 
48 40 41 
49 41 42 
50 42 43 
51 43 44 
52 44 8 
1 9 1 14
53 2 45 
54 45 46 
55 46 47 
56 47 48 
57 48 49 
58 49 50 
59 50 6 
53 2 45 
54 45 46 
55 46 47 
56 47 48 
57 48 49 
58 49 50 
59 50 6 
1 10 1 14
60 1 51 
61 51 52 
62 52 53 
63 53 54 
64 54 55 
65 55 56 
66 56 5 
60 1 51 
61 51 52 
62 52 53 
63 53 54 
64 54 55 
65 55 56 
66 56 5 
1 11 1 14
67 4 57 
68 57 58 
69 58 59 
70 59 60 
71 60 61 
72 61 62 
73 62 8 
67 4 57 
68 57 58 
69 58 59 
70 59 60 
71 60 61 
72 61 62 
73 62 8 
1 12 1 14
74 3 63 
75 63 64 
76 64 65 
77 65 66 
78 66 67 
79 67 68 
80 68 7 
74 3 63 
75 63 64 
76 64 65 
77 65 66 
78 66 67 
79 67 68 
80 68 7 
2 1 2 136
81 11 1 87 
82 1 12 87 
83 2 9 90 
84 21 2 90 
85 17 3 89 
86 3 20 89 
87 18 4 88 
88 4 26 88 
89 9 10 86 
90 9 86 90 
91 10 11 74 
92 10 74 86 
93 74 11 87 
94 12 13 84 
95 12 84 87 
96 13 14 69 
97 13 69 84 
98 14 15 81 
99 69 14 81 
100 15 16 75 
101 15 75 81 
102 16 17 71 
103 16 71 75 
104 71 17 89 
105 19 18 73 
106 73 18 88 
107 20 19 85 
108 19 73 85 
109 20 85 89 
110 22 21 72 
111 72 21 90 
112 23 22 79 
113 22 72 79 
114 24 23 78 
115 78 23 79 
116 25 24 70 
117 70 24 78 
118 26 25 83 
119 25 70 83 
120 26 83 88 
121 80 69 82 
122 69 80 84 
123 69 81 82 
124 76 70 77 
125 70 76 83 
126 77 70 78 
127 75 71 76 
128 76 71 92 
129 85 71 89 
130 71 85 92 
131 79 72 80 
132 80 72 91 
133 86 72 90 
134 72 86 91 
135 83 73 88 
136 73 83 92 
137 85 73 92 
138 84 74 87 
139 74 84 91 
140 86 74 91 
141 75 76 77 
142 75 77 81 
143 83 76 92 
144 77 78 82 
145 81 77 82 
146 78 79 82 
147 79 80 82 
148 84 80 91 
81 11 1 87 
82 1 12 87 
83 2 9 90 
84 21 2 90 
85 17 3 89 
86 3 20 89 
87 18 4 88 
88 4 26 88 
89 9 10 86 
90 9 86 90 
91 10 11 74 
92 10 74 86 
93 74 11 87 
94 12 13 84 
95 12 84 87 
96 13 14 69 
97 13 69 84 
98 14 15 81 
99 69 14 81 
100 15 16 75 
101 15 75 81 
102 16 17 71 
103 16 71 75 
104 71 17 89 
105 19 18 73 
106 73 18 88 
107 20 19 85 
108 19 73 85 
109 20 85 89 
110 22 21 72 
111 72 21 90 
112 23 22 79 
113 22 72 79 
114 24 23 78 
115 78 23 79 
116 25 24 70 
117 70 24 78 
118 26 25 83 
119 25 70 83 
120 26 83 88 
121 80 69 82 
122 69 80 84 
123 69 81 82 
124 76 70 77 
125 70 76 83 
126 77 70 78 
127 75 71 76 
128 76 71 92 
129 85 71 89 
130 71 85 92 
131 79 72 80 
132 80 72 91 
133 86 72 90 
134 72 86 91 
135 83 73 88 
136 73 83 92 
137 85 73 92 
138 84 74 87 
139 74 84 91 
140 86 74 91 
141 75 76 77 
142 75 77 81 
143 83 76 92 
144 77 78 82 
145 81 77 82 
146 78 79 82 
147 79 80 82 
148 84 80 91 
2 2 2 136
149 29 111 5 
150 5 111 30 
151 6 114 27 
152 39 114 6 
153 35 113 7 
154 7 113 38 
155 36 112 8 
156 8 112 44 
157 27 110 28 
158 27 114 110 
159 28 98 29 
160 28 110 98 
161 98 111 29 
162 30 108 31 
163 30 111 108 
164 31 93 32 
165 31 108 93 
166 32 105 33 
167 93 105 32 
168 33 99 34 
169 33 105 99 
170 34 95 35 
171 34 99 95 
172 95 113 35 
173 37 97 36 
174 97 112 36 
175 38 109 37 
176 37 109 97 
177 38 113 109 
178 40 96 39 
179 96 114 39 
180 41 103 40 
181 40 103 96 
182 42 102 41 
183 102 103 41 
184 43 94 42 
185 94 102 42 
186 44 107 43 
187 43 107 94 
188 44 112 107 
189 104 106 93 
190 93 108 104 
191 93 106 105 
192 100 101 94 
193 94 107 100 
194 101 102 94 
195 99 100 95 
196 100 116 95 
197 109 113 95 
198 95 116 109 
199 103 104 96 
200 104 115 96 
201 110 114 96 
202 96 115 110 
203 107 112 97 
204 97 116 107 
205 109 116 97 
206 108 111 98 
207 98 115 108 
208 110 115 98 
209 99 101 100 
210 99 105 101 
211 107 116 100 
212 101 106 102 
213 105 106 101 
214 102 106 103 
215 103 106 104 
216 108 115 104 
149 29 111 5 
150 5 111 30 
151 6 114 27 
152 39 114 6 
153 35 113 7 
154 7 113 38 
155 36 112 8 
156 8 112 44 
157 27 110 28 
158 27 114 110 
159 28 98 29 
160 28 110 98 
161 98 111 29 
162 30 108 31 
163 30 111 108 
164 31 93 32 
165 31 108 93 
166 32 105 33 
167 93 105 32 
168 33 99 34 
169 33 105 99 
170 34 95 35 
171 34 99 95 
172 95 113 35 
173 37 97 36 
174 97 112 36 
175 38 109 37 
176 37 109 97 
177 38 113 109 
178 40 96 39 
179 96 114 39 
180 41 103 40 
181 40 103 96 
182 42 102 41 
183 102 103 41 
184 43 94 42 
185 94 102 42 
186 44 107 43 
187 43 107 94 
188 44 112 107 
189 104 106 93 
190 93 108 104 
191 93 106 105 
192 100 101 94 
193 94 107 100 
194 101 102 94 
195 99 100 95 
196 100 116 95 
197 109 113 95 
198 95 116 109 
199 103 104 96 
200 104 115 96 
201 110 114 96 
202 96 115 110 
203 107 112 97 
204 97 116 107 
205 109 116 97 
206 108 111 98 
207 98 115 108 
208 110 115 98 
209 99 101 100 
210 99 105 101 
211 107 116 100 
212 101 106 102 
213 105 106 101 
214 102 106 103 
215 103 106 104 
216 108 115 104 
2 3 2 136
217 1 11 137 
218 51 1 137 
219 9 2 136 
220 2 45 136 
221 29 5 138 
222 5 56 138 
223 6 27 135 
224 50 6 135 
225 10 9 123 
226 123 9 136 
227 11 10 134 
228 10 123 134 
229 11 134 137 
230 27 28 122 
231 27 122 135 
232 28 29 133 
233 122 28 133 
234 133 29 138 
235 45 46 132 
236 45 132 136 
237 46 47 117 
238 46 117 132 
239 47 48 128 
240 117 47 128 
241 48 49 118 
242 48 118 128 
243 49 50 131 
244 118 49 131 
245 131 50 135 
246 52 51 120 
247 120 51 137 
248 53 52 126 
249 52 120 126 
250 54 53 121 
251 121 53 126 
252 55 54 124 
253 54 121 124 
254 56 55 119 
255 119 55 124 
256 56 119 138 
257 127 117 130 
258 117 127 132 
259 117 128 130 
260 118 125 129 
261 125 118 131 
262 128 118 129 
263 119 124 125 
264 119 125 139 
265 119 133 138 
266 133 119 139 
267 126 120 127 
268 127 120 140 
269 134 120 137 
270 120 134 140 
271 124 121 129 
272 121 126 130 
273 129 121 130 
274 122 131 135 
275 131 122 139 
276 122 133 139 
277 132 123 136 
278 123 132 140 
279 134 123 140 
280 125 124 129 
281 125 131 139 
282 126 127 130 
283 132 127 140 
284 128 129 130 
217 1 11 137 
218 51 1 137 
219 9 2 136 
220 2 45 136 
221 29 5 138 
222 5 56 138 
223 6 27 135 
224 50 6 135 
225 10 9 123 
226 123 9 136 
227 11 10 134 
228 10 123 134 
229 11 134 137 
230 27 28 122 
231 27 122 135 
232 28 29 133 
233 122 28 133 
234 133 29 138 
235 45 46 132 
236 45 132 136 
237 46 47 117 
238 46 117 132 
239 47 48 128 
240 117 47 128 
241 48 49 118 
242 48 118 128 
243 49 50 131 
244 118 49 131 
245 131 50 135 
246 52 51 120 
247 120 51 137 
248 53 52 126 
249 52 120 126 
250 54 53 121 
251 121 53 126 
252 55 54 124 
253 54 121 124 
254 56 55 119 
255 119 55 124 
256 56 119 138 
257 127 117 130 
258 117 127 132 
259 117 128 130 
260 118 125 129 
261 125 118 131 
262 128 118 129 
263 119 124 125 
264 119 125 139 
265 119 133 138 
266 133 119 139 
267 126 120 127 
268 127 120 140 
269 134 120 137 
270 120 134 140 
271 124 121 129 
272 121 126 130 
273 129 121 130 
274 122 131 135 
275 131 122 139 
276 122 133 139 
277 132 123 136 
278 123 132 140 
279 134 123 140 
280 125 124 129 
281 125 131 139 
282 126 127 130 
283 132 127 140 
284 128 129 130 
2 4 2 136
285 3 161 20 
286 63 161 3 
287 18 160 4 
288 4 160 57 
289 38 159 7 
290 7 159 68 
291 8 162 36 
292 62 162 8 
293 19 146 18 
294 146 160 18 
295 20 158 19 
296 19 158 146 
297 20 161 158 
298 36 157 37 
299 36 162 157 
300 37 145 38 
301 37 157 145 
302 145 159 38 
303 57 156 58 
304 57 160 156 
305 58 141 59 
306 58 156 141 
307 59 153 60 
308 141 153 59 
309 60 147 61 
310 60 153 147 
311 61 143 62 
312 61 147 143 
313 143 162 62 
314 64 144 63 
315 144 161 63 
316 65 151 64 
317 64 151 144 
318 66 150 65 
319 150 151 65 
320 67 142 66 
321 142 150 66 
322 68 155 67 
323 67 155 142 
324 68 159 155 
325 152 154 141 
326 141 156 152 
327 141 154 153 
328 148 149 142 
329 142 155 148 
330 149 150 142 
331 147 148 143 
332 148 164 143 
333 157 162 143 
334 143 164 157 
335 151 152 144 
336 152 163 144 
337 158 161 144 
338 144 163 158 
339 155 159 145 
340 145 164 155 
341 157 164 145 
342 156 160 146 
343 146 163 156 
344 158 163 146 
345 147 149 148 
346 147 153 149 
347 155 164 148 
348 149 154 150 
349 153 154 149 
350 150 154 151 
351 151 154 152 
352 156 163 152 
285 3 161 20 
286 63 161 3 
287 18 160 4 
288 4 160 57 
289 38 159 7 
290 7 159 68 
291 8 162 36 
292 62 162 8 
293 19 146 18 
294 146 160 18 
295 20 158 19 
296 19 158 146 
297 20 161 158 
298 36 157 37 
299 36 162 157 
300 37 145 38 
301 37 157 145 
302 145 159 38 
303 57 156 58 
304 57 160 156 
305 58 141 59 
306 58 156 141 
307 59 153 60 
308 141 153 59 
309 60 147 61 
310 60 153 147 
311 61 143 62 
312 61 147 143 
313 143 162 62 
314 64 144 63 
315 144 161 63 
316 65 151 64 
317 64 151 144 
318 66 150 65 
319 150 151 65 
320 67 142 66 
321 142 150 66 
322 68 155 67 
323 67 155 142 
324 68 159 155 
325 152 154 141 
326 141 156 152 
327 141 154 153 
328 148 149 142 
329 142 155 148 
330 149 150 142 
331 147 148 143 
332 148 164 143 
333 157 162 143 
334 143 164 157 
335 151 152 144 
336 152 163 144 
337 158 161 144 
338 144 163 158 
339 155 159 145 
340 145 164 155 
341 157 164 145 
342 156 160 146 
343 146 163 156 
344 158 163 146 
345 147 149 148 
346 147 153 149 
347 155 164 148 
348 149 154 150 
349 153 154 149 
350 150 154 151 
351 151 154 152 
352 156 163 152 
2 5 2 236
353 2 21 209 
354 45 2 209 
355 26 4 207 
356 4 57 207 
357 39 6 210 
358 6 50 210 
359 8 44 208 
360 62 8 208 
361 21 22 201 
362 21 201 209 
363 22 23 200 
364 22 200 201 
365 23 24 165 
366 23 165 200 
367 24 25 173 
368 165 24 173 
369 25 26 169 
370 25 169 173 
371 169 26 207 
372 40 39 202 
373 202 39 210 
374 41 40 195 
375 195 40 202 
376 42 41 166 
377 166 41 195 
378 43 42 193 
379 42 166 193 
380 44 43 171 
381 171 43 193 
382 44 171 208 
383 46 45 172 
384 172 45 209 
385 47 46 206 
386 46 172 206 
387 48 47 168 
388 168 47 206 
389 49 48 203 
390 48 168 203 
391 50 49 170 
392 170 49 203 
393 50 170 210 
394 57 58 198 
395 57 198 207 
396 58 59 204 
397 198 58 204 
398 59 60 167 
399 59 167 204 
400 60 61 205 
401 167 60 205 
402 61 62 190 
403 61 190 205 
404 190 62 208 
405 165 173 174 
406 165 174 175 
407 165 175 200 
408 166 187 193 
409 187 166 194 
410 194 166 195 
411 167 189 199 
412 189 167 205 
413 197 167 199 
414 167 197 204 
415 168 183 184 
416 183 168 186 
417 168 184 203 
418 186 168 206 
419 173 169 196 
420 196 169 198 
421 198 169 207 
422 170 184 185 
423 184 170 203 
424 170 185 202 
425 170 202 210 
426 171 188 190 
427 188 171 193 
428 171 190 208 
429 186 172 192 
430 172 186 206 
431 192 172 201 
432 201 172 209 
433 174 173 196 
434 175 174 176 
435 176 174 177 
436 177 174 196 
437 175 176 191 
438 175 191 192 
439 175 192 200 
440 176 177 178 
441 176 178 179 
442 176 179 191 
443 178 177 199 
444 177 196 197 
445 177 197 199 
446 179 178 180 
447 180 178 181 
448 181 178 199 
449 179 180 182 
450 179 182 183 
451 179 183 191 
452 180 181 187 
453 182 180 194 
454 180 187 194 
455 187 181 188 
456 188 181 189 
457 189 181 199 
458 183 182 184 
459 184 182 185 
460 185 182 194 
461 183 186 191 
462 185 194 195 
463 185 195 202 
464 191 186 192 
465 187 188 193 
466 188 189 190 
467 190 189 205 
468 200 192 201 
469 197 196 198 
470 197 198 204 
353 2 21 209 
354 45 2 209 
355 26 4 207 
356 4 57 207 
357 39 6 210 
358 6 50 210 
359 8 44 208 
360 62 8 208 
361 21 22 201 
362 21 201 209 
363 22 23 200 
364 22 200 201 
365 23 24 165 
366 23 165 200 
367 24 25 173 
368 165 24 173 
369 25 26 169 
370 25 169 173 
371 169 26 207 
372 40 39 202 
373 202 39 210 
374 41 40 195 
375 195 40 202 
376 42 41 166 
377 166 41 195 
378 43 42 193 
379 42 166 193 
380 44 43 171 
381 171 43 193 
382 44 171 208 
383 46 45 172 
384 172 45 209 
385 47 46 206 
386 46 172 206 
387 48 47 168 
388 168 47 206 
389 49 48 203 
390 48 168 203 
391 50 49 170 
392 170 49 203 
393 50 170 210 
394 57 58 198 
395 57 198 207 
396 58 59 204 
397 198 58 204 
398 59 60 167 
399 59 167 204 
400 60 61 205 
401 167 60 205 
402 61 62 190 
403 61 190 205 
404 190 62 208 
405 165 173 174 
406 165 174 175 
407 165 175 200 
408 166 187 193 
409 187 166 194 
410 194 166 195 
411 167 189 199 
412 189 167 205 
413 197 167 199 
414 167 197 204 
415 168 183 184 
416 183 168 186 
417 168 184 203 
418 186 168 206 
419 173 169 196 
420 196 169 198 
421 198 169 207 
422 170 184 185 
423 184 170 203 
424 170 185 202 
425 170 202 210 
426 171 188 190 
427 188 171 193 
428 171 190 208 
429 186 172 192 
430 172 186 206 
431 192 172 201 
432 201 172 209 
433 174 173 196 
434 175 174 176 
435 176 174 177 
436 177 174 196 
437 175 176 191 
438 175 191 192 
439 175 192 200 
440 176 177 178 
441 176 178 179 
442 176 179 191 
443 178 177 199 
444 177 196 197 
445 177 197 199 
446 179 178 180 
447 180 178 181 
448 181 178 199 
449 179 180 182 
450 179 182 183 
451 179 183 191 
452 180 181 187 
453 182 180 194 
454 180 187 194 
455 187 181 188 
456 188 181 189 
457 189 181 199 
458 183 182 184 
459 184 182 185 
460 185 182 194 
461 183 186 191 
462 185 194 195 
463 185 195 202 
464 191 186 192 
465 187 188 193 
466 188 189 190 
467 190 189 205 
468 200 192 201 
469 197 196 198 
470 197 198 204 
2 6 2 236
471 1 255 12 
472 51 255 1 
473 17 254 3 
474 3 254 63 
475 30 256 5 
476 5 256 56 
477 7 253 35 
478 68 253 7 
479 12 247 13 
480 12 255 247 
481 13 245 14 
482 13 247 245 
483 14 211 15 
484 14 245 211 
485 15 219 16 
486 211 219 15 
487 16 215 17 
488 16 219 215 
489 215 254 17 
490 31 248 30 
491 248 256 30 
492 32 240 31 
493 240 248 31 
494 33 212 32 
495 212 240 32 
496 34 238 33 
497 33 238 212 
498 35 246 34 
499 34 246 238 
500 35 253 246 
501 52 218 51 
502 218 255 51 
503 53 252 52 
504 52 252 218 
505 54 214 53 
506 214 252 53 
507 55 250 54 
508 54 250 214 
509 56 216 55 
510 216 250 55 
511 56 256 216 
512 63 243 64 
513 63 254 243 
514 64 251 65 
515 243 251 64 
516 65 213 66 
517 65 251 213 
518 66 249 67 
519 213 249 66 
520 67 217 68 
521 67 249 217 
522 217 253 68 
523 211 220 219 
524 211 221 220 
525 211 245 221 
526 212 238 233 
527 233 239 212 
528 239 240 212 
529 213 244 235 
530 235 249 213 
531 242 244 213 
532 213 251 242 
533 214 230 229 
534 229 232 214 
535 214 250 230 
536 232 252 214 
537 219 241 215 
538 241 243 215 
539 243 254 215 
540 216 231 230 
541 230 250 216 
542 216 248 231 
543 216 256 248 
544 217 235 234 
545 234 246 217 
546 217 249 235 
547 246 253 217 
548 232 237 218 
549 218 252 232 
550 237 247 218 
551 247 255 218 
552 220 241 219 
553 221 222 220 
554 222 223 220 
555 223 241 220 
556 221 236 222 
557 221 237 236 
558 221 245 237 
559 222 224 223 
560 222 225 224 
561 222 236 225 
562 224 244 223 
563 223 242 241 
564 223 244 242 
565 225 226 224 
566 226 227 224 
567 227 244 224 
568 225 228 226 
569 225 229 228 
570 225 236 229 
571 226 233 227 
572 228 239 226 
573 226 239 233 
574 233 234 227 
575 234 235 227 
576 235 244 227 
577 229 230 228 
578 230 231 228 
579 231 239 228 
580 229 236 232 
581 231 240 239 
582 231 248 240 
583 236 237 232 
584 233 238 234 
585 238 246 234 
586 245 247 237 
587 242 243 241 
588 242 251 243 
471 1 255 12 
472 51 255 1 
473 17 254 3 
474 3 254 63 
475 30 256 5 
476 5 256 56 
477 7 253 35 
478 68 253 7 
479 12 247 13 
480 12 255 247 
481 13 245 14 
482 13 247 245 
483 14 211 15 
484 14 245 211 
485 15 219 16 
486 211 219 15 
487 16 215 17 
488 16 219 215 
489 215 254 17 
490 31 248 30 
491 248 256 30 
492 32 240 31 
493 240 248 31 
494 33 212 32 
495 212 240 32 
496 34 238 33 
497 33 238 212 
498 35 246 34 
499 34 246 238 
500 35 253 246 
501 52 218 51 
502 218 255 51 
503 53 252 52 
504 52 252 218 
505 54 214 53 
506 214 252 53 
507 55 250 54 
508 54 250 214 
509 56 216 55 
510 216 250 55 
511 56 256 216 
512 63 243 64 
513 63 254 243 
514 64 251 65 
515 243 251 64 
516 65 213 66 
517 65 251 213 
518 66 249 67 
519 213 249 66 
520 67 217 68 
521 67 249 217 
522 217 253 68 
523 211 220 219 
524 211 221 220 
525 211 245 221 
526 212 238 233 
527 233 239 212 
528 239 240 212 
529 213 244 235 
530 235 249 213 
531 242 244 213 
532 213 251 242 
533 214 230 229 
534 229 232 214 
535 214 250 230 
536 232 252 214 
537 219 241 215 
538 241 243 215 
539 243 254 215 
540 216 231 230 
541 230 250 216 
542 216 248 231 
543 216 256 248 
544 217 235 234 
545 234 246 217 
546 217 249 235 
547 246 253 217 
548 232 237 218 
549 218 252 232 
550 237 247 218 
551 247 255 218 
552 220 241 219 
553 221 222 220 
554 222 223 220 
555 223 241 220 
556 221 236 222 
557 221 237 236 
558 221 245 237 
559 222 224 223 
560 222 225 224 
561 222 236 225 
562 224 244 223 
563 223 242 241 
564 223 244 242 
565 225 226 224 
566 226 227 224 
567 227 244 224 
568 225 228 226 
569 225 229 228 
570 225 236 229 
571 226 233 227 
572 228 239 226 
573 226 239 233 
574 233 234 227 
575 234 235 227 
576 235 244 227 
577 229 230 228 
578 230 231 228 
579 231 239 228 
580 229 236 232 
581 231 240 239 
582 231 248 240 
583 236 237 232 
584 233 238 234 
585 238 246 234 
586 245 247 237 
587 242 243 241 
588 242 251 243 
3 1 4 1924
589 125 260 124 283 
590 126 218 269 280 
591 127 126 259 280 
592 126 127 259 269 
593 124 283 260 293 
594 126 269 259 280 
595 281 298 147 301 
596 148 147 281 298 
597 261 298 281 301 
598 252 126 218 269 
599 259 269 232 280 
600 218 232 269 280 
601 124 260 125 293 
602 175 257 174 273 
603 174 257 266 270 
604 216 283 124 293 
605 257 270 174 273 
606 148 147 143 281 
607 221 220 222 257 
608 196 266 262 270 
609 77 270 272 273 
610 250 216 124 293 
611 263 267 225 293 
612 77 272 82 273 
613 196 262 266 287 
614 225 229 263 293 
615 220 257 221 272 
616 228 225 267 293 
617 220 222 257 289 
618 221 272 257 275 
619 119 125 124 283 
620 221 257 222 291 
621 225 228 229 293 
622 261 281 190 301 
623 225 267 263 271 
624 147 190 281 301 
625 237 259 232 280 
626 178 266 258 286 
627 84 275 247 280 
628 252 218 232 269 
629 174 266 177 270 
630 175 174 165 273 
631 77 78 270 273 
632 174 270 165 273 
633 232 269 259 291 
634 84 69 247 275 
635 127 120 126 280 
636 247 69 245 275 
637 77 82 78 273 
638 258 296 271 300 
639 196 177 266 270 
640 232 259 237 291 
641 225 263 229 291 
642 237 232 218 280 
643 80 275 84 280 
644 260 283 231 293 
645 271 296 226 300 
646 225 271 263 291 
647 105 274 265 279 
648 190 286 261 301 
649 147 190 143 281 
650 250 124 121 293 
651 101 265 105 274 
652 258 266 178 278 
653 260 125 293 305 
654 179 183 263 278 
655 106 105 101 265 
656 263 278 183 295 
657 218 126 120 280 
658 178 286 258 303 
659 221 275 257 291 
660 80 259 275 280 
661 224 226 271 296 
662 220 257 272 289 
663 73 146 85 290 
664 277 284 217 298 
665 105 265 106 279 
666 257 271 222 291 
667 124 125 129 293 
668 266 286 199 287 
669 183 179 263 288 
670 82 273 272 275 
671 196 174 177 270 
672 105 212 274 279 
673 72 201 273 285 
674 179 278 263 288 
675 125 129 293 305 
676 216 119 124 283 
677 216 231 283 293 
678 80 69 84 275 
679 222 271 257 289 
680 226 267 271 300 
681 183 292 263 295 
682 258 288 178 303 
683 258 278 178 288 
684 85 146 158 290 
685 129 121 124 293 
686 231 260 267 279 
687 250 121 214 293 
688 264 286 266 287 
689 247 275 237 280 
690 257 272 270 273 
691 274 279 212 300 
692 127 259 269 292 
693 234 217 277 284 
694 175 257 273 295 
695 179 191 183 278 
696 169 83 270 276 
697 183 268 263 292 
698 72 201 79 273 
699 199 287 286 301 
700 98 110 133 283 
701 188 261 190 286 
702 191 183 278 295 
703 129 269 121 293 
704 196 276 262 287 
705 263 183 288 302 
706 178 181 286 303 
707 100 261 116 281 
708 268 293 129 305 
709 169 83 70 270 
710 261 274 300 303 
711 200 79 201 273 
712 258 271 267 300 
713 231 267 260 293 
714 80 72 273 285 
715 261 300 284 303 
716 259 285 192 292 
717 169 70 173 270 
718 234 274 261 277 
719 248 279 108 283 
720 274 284 261 300 
721 78 165 270 273 
722 237 275 259 280 
723 263 269 229 291 
724 234 277 261 284 
725 196 177 197 266 
726 80 273 259 285 
727 226 267 225 271 
728 86 134 123 280 
729 157 97 109 277 
730 150 213 264 298 
731 201 192 273 285 
732 196 270 262 276 
733 178 199 266 286 
734 73 85 92 290 
735 196 266 197 287 
736 261 284 277 298 
737 263 268 183 302 
738 86 74 134 280 
739 157 109 145 277 
740 172 192 285 292 
741 261 274 234 284 
742 163 158 146 290 
743 261 277 164 298 
744 127 140 259 285 
745 116 261 100 277 
746 139 125 283 305 
747 91 80 259 285 
748 286 287 264 301 
749 163 262 152 290 
750 104 260 115 283 
751 104 115 260 282 
752 76 92 262 276 
753 259 273 192 285 
754 262 270 76 276 
755 83 76 270 276 
756 267 265 294 302 
757 190 261 188 281 
758 272 273 257 275 
759 76 262 92 304 
760 152 262 163 276 
761 248 240 93 279 
762 121 269 214 293 
763 236 225 229 291 
764 247 245 237 275 
765 139 133 122 283 
766 73 276 146 290 
767 231 279 248 283 
768 231 260 279 283 
769 189 286 190 301 
770 248 93 108 279 
771 267 288 265 302 
772 104 279 260 283 
773 169 270 196 276 
774 246 95 274 277 
775 180 178 288 303 
776 259 273 80 275 
777 235 217 284 298 
778 104 108 279 283 
779 213 150 249 298 
780 262 290 92 304 
781 127 259 140 280 
782 91 259 80 280 
783 150 142 249 298 
784 259 275 237 291 
785 246 95 99 274 
786 227 226 224 296 
787 212 279 239 300 
788 261 274 100 277 
789 86 91 74 280 
790 227 226 296 300 
791 157 145 164 277 
792 127 285 259 292 
793 157 97 277 281 
794 166 102 265 294 
795 259 292 192 295 
796 164 277 261 281 
797 116 261 277 281 
798 134 140 123 280 
799 261 281 100 297 
800 230 216 250 293 
801 127 132 285 292 
802 116 109 97 277 
803 264 266 289 299 
804 262 290 241 299 
805 235 264 213 298 
806 196 198 276 287 
807 166 265 102 297 
808 86 280 123 285 
809 234 235 217 284 
810 266 262 289 299 
811 115 260 282 283 
812 188 281 261 297 
813 129 268 269 293 
814 189 188 190 286 
815 79 80 72 273 
816 231 216 230 293 
817 205 190 147 301 
818 213 150 264 299 
819 234 246 274 277 
820 269 291 263 292 
821 95 100 274 277 
822 99 238 246 274 
823 229 269 263 293 
824 267 271 258 288 
825 262 241 290 304 
826 262 276 152 287 
827 264 287 266 299 
828 266 287 262 299 
829 194 288 265 303 
830 73 92 276 290 
831 261 297 274 303 
832 263 271 267 288 
833 132 172 285 292 
834 263 292 291 295 
835 262 276 92 290 
836 163 146 276 290 
837 152 290 262 299 
838 200 201 192 273 
839 163 276 262 290 
840 140 280 259 285 
841 265 279 274 300 
842 83 76 70 270 
843 259 280 91 285 
844 104 282 260 294 
845 139 122 282 283 
846 154 149 264 301 
847 232 229 269 291 
848 266 270 257 289 
849 259 291 269 292 
850 76 270 262 304 
851 154 264 287 301 
852 243 241 290 299 
853 260 283 125 305 
854 261 286 188 297 
855 262 270 266 289 
856 264 296 244 299 
857 156 152 276 287 
858 154 149 150 264 
859 116 277 97 281 
860 235 284 264 298 
861 192 273 259 295 
862 169 173 196 270 
863 185 282 294 302 
864 213 264 244 299 
865 188 297 286 303 
866 107 100 116 281 
867 178 266 177 278 
868 140 123 280 285 
869 176 178 177 278 
870 188 171 281 297 
871 259 291 292 295 
872 164 157 277 281 
873 260 267 294 302 
874 178 181 199 286 
875 261 286 297 303 
876 100 281 107 297 
877 274 265 300 303 
878 186 292 183 295 
879 235 244 213 264 
880 100 274 261 297 
881 150 264 149 298 
882 127 132 140 285 
883 154 264 150 299 
884 86 91 280 285 
885 241 289 262 299 
886 235 244 264 284 
887 102 265 101 297 
888 258 284 300 303 
889 152 144 290 299 
890 231 228 267 293 
891 249 235 213 298 
892 231 267 239 279 
893 199 167 287 301 
894 143 164 148 281 
895 198 156 276 287 
896 187 265 166 297 
897 144 163 152 290 
898 165 173 70 270 
899 102 106 265 294 
900 155 277 217 298 
901 197 266 199 287 
902 132 117 172 292 
903 231 240 248 279 
904 232 236 229 291 
905 260 294 282 302 
906 99 105 238 274 
907 233 274 212 300 
908 106 101 102 265 
909 76 272 270 304 
910 238 105 212 274 
911 226 228 225 267 
912 200 165 78 273 
913 242 296 289 299 
914 260 279 104 294 
915 265 279 267 294 
916 78 165 70 270 
917 186 192 172 292 
918 91 72 80 285 
919 258 271 278 288 
920 142 155 217 298 
921 267 279 260 294 
922 166 265 194 294 
923 198 141 156 287 
924 249 142 217 298 
925 166 103 102 294 
926 166 195 103 294 
927 263 278 271 288 
928 182 288 183 302 
929 166 187 194 265 
930 261 284 286 303 
931 95 100 99 274 
932 258 266 264 286 
933 227 296 284 300 
934 154 287 153 301 
935 274 297 265 303 
936 78 79 200 273 
937 93 104 108 279 
938 104 115 108 283 
939 242 244 296 299 
940 185 282 302 305 
941 77 270 76 272 
942 81 211 245 275 
943 265 267 258 288 
944 81 82 272 275 
945 224 226 225 271 
946 264 266 258 296 
947 107 281 171 297 
948 94 166 102 297 
949 264 289 266 296 
950 129 268 130 269 
951 206 172 117 292 
952 185 282 202 294 
953 104 96 282 294 
954 233 212 239 300 
955 76 83 92 276 
956 119 139 125 283 
957 204 141 198 287 
958 104 96 115 282 
959 93 212 105 279 
960 262 287 152 299 
961 141 204 153 287 
962 241 262 289 304 
963 257 275 273 291 
964 242 223 289 296 
965 96 202 282 294 
966 289 296 264 299 
967 197 177 199 266 
968 186 183 191 295 
969 94 193 166 297 
970 240 212 93 279 
971 181 178 180 303 
972 156 152 163 276 
973 224 222 223 296 
974 81 245 69 275 
975 225 236 271 291 
976 91 80 84 280 
977 224 271 222 296 
978 238 234 246 274 
979 82 80 273 275 
980 231 228 239 267 
981 127 269 130 292 
982 167 153 204 287 
983 264 284 244 296 
984 258 267 265 300 
985 213 244 242 299 
986 81 211 14 245 
987 257 291 273 295 
988 265 288 258 303 
989 186 192 292 295 
990 187 194 265 303 
991 96 103 202 294 
992 94 107 171 297 
993 130 269 268 292 
994 195 202 103 294 
995 120 127 140 280 
996 130 268 128 292 
997 179 178 278 288 
998 234 284 274 300 
999 200 23 78 165 
1000 265 274 101 297 
1001 273 275 259 291 
1002 180 288 194 303 
1003 168 268 183 292 
1004 116 100 95 277 
1005 238 33 105 99 
1006 267 293 263 302 
1007 239 279 267 300 
1008 235 249 217 298 
1009 183 182 179 288 
1010 106 279 265 294 
1011 196 197 198 287 
1012 41 166 195 103 
1013 150 251 151 299 
1014 105 212 33 238 
1015 127 117 132 292 
1016 117 128 206 292 
1017 211 272 221 275 
1018 126 130 127 269 
1019 41 166 103 102 
1020 14 81 245 69 
1021 94 171 193 297 
1022 156 141 152 287 
1023 267 263 288 302 
1024 165 173 24 70 
1025 286 298 261 301 
1026 150 213 251 299 
1027 79 23 78 200 
1028 220 221 211 272 
1029 262 272 270 289 
1030 258 271 266 278 
1031 154 287 264 299 
1032 257 271 266 289 
1033 260 302 282 305 
1034 259 273 291 295 
1035 205 189 190 301 
1036 166 42 94 102 
1037 81 82 77 272 
1038 24 78 165 70 
1039 257 278 271 291 
1040 178 199 177 266 
1041 284 296 258 300 
1042 212 32 93 105 
1043 168 206 128 292 
1044 243 290 144 299 
1045 128 118 203 268 
1046 187 265 297 303 
1047 258 286 284 303 
1048 32 93 240 212 
1049 270 272 257 289 
1050 94 193 42 166 
1051 167 153 287 301 
1052 266 271 257 278 
1053 220 272 219 304 
1054 149 298 264 301 
1055 167 197 199 287 
1056 233 234 274 300 
1057 252 121 126 269 
1058 241 242 289 299 
1059 179 180 178 288 
1060 168 128 268 292 
1061 154 153 149 301 
1062 257 278 291 295 
1063 211 81 272 275 
1064 129 128 130 268 
1065 169 25 173 70 
1066 227 284 233 300 
1067 266 271 258 296 
1068 191 176 175 295 
1069 263 271 278 291 
1070 248 31 93 240 
1071 270 272 262 304 
1072 128 203 168 268 
1073 214 230 250 293 
1074 247 13 245 69 
1075 129 130 121 269 
1076 258 284 264 296 
1077 171 107 94 43 
1078 171 94 193 43 
1079 215 290 241 304 
1080 31 93 108 248 
1081 264 284 258 286 
1082 243 144 151 299 
1083 233 284 234 300 
1084 214 121 252 269 
1085 220 219 241 304 
1086 25 169 83 70 
1087 75 77 76 272 
1088 75 272 76 304 
1089 214 269 229 293 
1090 263 291 278 295 
1091 222 271 236 291 
1092 221 222 236 291 
1093 266 289 271 296 
1094 233 227 234 284 
1095 185 170 282 305 
1096 195 40 103 202 
1097 186 168 183 292 
1098 13 247 84 69 
1099 219 211 15 272 
1100 268 269 263 292 
1101 211 81 15 272 
1102 79 201 22 200 
1103 151 251 243 299 
1104 239 267 226 300 
1105 221 237 275 291 
1106 194 185 294 302 
1107 82 69 80 275 
1108 194 288 182 302 
1109 15 75 219 272 
1110 96 103 40 202 
1111 246 34 238 99 
1112 272 289 262 304 
1113 15 81 75 272 
1114 34 246 95 99 
1115 268 263 293 302 
1116 191 278 176 295 
1117 265 267 279 300 
1118 265 258 300 303 
1119 260 293 267 302 
1120 100 101 274 297 
1121 222 225 236 271 
1122 190 188 171 281 
1123 106 104 279 294 
1124 146 19 73 85 
1125 72 201 22 79 
1126 220 223 222 289 
1127 193 187 166 297 
1128 242 244 223 296 
1129 102 103 106 294 
1130 165 174 173 270 
1131 175 273 192 295 
1132 94 102 101 297 
1133 151 251 150 65 
1134 166 194 195 294 
1135 243 241 215 290 
1136 141 204 59 153 
1137 231 230 228 293 
1138 152 287 154 299 
1139 152 151 144 299 
1140 226 239 228 267 
1141 99 101 105 274 
1142 146 19 85 158 
1143 233 238 212 274 
1144 252 53 126 121 
1145 65 251 150 213 
1146 71 92 290 304 
1147 147 298 149 301 
1148 46 172 117 206 
1149 117 47 206 128 
1150 149 147 148 298 
1151 167 59 204 153 
1152 204 58 198 141 
1153 70 77 78 270 
1154 53 252 214 121 
1155 168 206 47 128 
1156 117 132 172 46 
1157 151 154 150 299 
1158 232 237 236 291 
1159 260 293 268 305 
1160 218 126 252 52 
1161 217 249 67 142 
1162 260 268 302 305 
1163 187 180 194 303 
1164 123 86 10 134 
1165 175 165 200 273 
1166 109 157 37 97 
1167 145 109 157 37 
1168 133 28 122 110 
1169 74 10 86 134 
1170 28 133 98 110 
1171 154 141 153 287 
1172 156 198 58 141 
1173 242 241 243 299 
1174 126 218 120 52 
1175 185 202 195 294 
1176 81 69 82 275 
1177 104 103 96 294 
1178 260 268 293 302 
1179 201 172 192 285 
1180 94 100 107 297 
1181 213 150 66 249 
1182 155 217 67 142 
1183 124 54 250 121 
1184 217 246 234 277 
1185 93 105 106 279 
1186 249 150 66 142 
1187 243 64 251 151 
1188 118 203 268 305 
1189 183 268 184 302 
1190 218 247 237 280 
1191 198 169 196 276 
1192 159 145 109 277 
1193 128 48 203 118 
1194 248 216 231 283 
1195 202 185 170 282 
1196 124 250 55 216 
1197 223 241 242 289 
1198 64 243 144 151 
1199 142 150 149 298 
1200 214 250 54 121 
1201 48 203 168 128 
1202 130 128 117 292 
1203 187 297 188 303 
1204 196 173 174 270 
1205 78 82 79 273 
1206 88 146 73 276 
1207 214 229 230 293 
1208 159 109 113 277 
1209 76 77 70 270 
1210 188 193 171 297 
1211 110 135 122 282 
1212 133 111 98 283 
1213 240 239 212 279 
1214 119 124 55 216 
1215 263 269 268 293 
1216 192 175 200 273 
1217 206 186 172 292 
1218 71 76 92 304 
1219 221 236 237 291 
1220 114 135 110 282 
1221 181 188 286 303 
1222 133 138 111 283 
1223 88 160 146 276 
1224 142 148 155 298 
1225 87 134 74 280 
1226 205 147 190 61 
1227 80 79 82 273 
1228 139 282 131 305 
1229 147 143 190 61 
1230 118 268 129 305 
1231 97 157 112 281 
1232 244 284 227 296 
1233 197 204 198 287 
1234 238 233 234 274 
1235 137 134 87 280 
1236 180 182 194 288 
1237 231 239 240 279 
1238 136 86 123 285 
1239 157 162 112 281 
1240 161 89 158 290 
1241 99 100 101 274 
1242 89 85 158 290 
1243 179 176 191 278 
1244 184 185 302 305 
1245 136 90 86 285 
1246 129 118 128 268 
1247 159 253 155 277 
1248 135 210 131 282 
1249 111 256 108 283 
1250 199 286 189 301 
1251 106 104 93 279 
1252 284 286 264 298 
1253 261 286 284 298 
1254 95 253 113 277 
1255 126 121 130 269 
1256 197 167 204 287 
1257 232 229 214 269 
1258 112 208 107 281 
1259 138 119 256 283 
1260 96 210 114 282 
1261 221 237 245 275 
1262 84 255 87 280 
1263 187 193 188 297 
1264 151 152 154 299 
1265 264 298 286 301 
1266 136 132 209 285 
1267 162 143 208 281 
1268 186 191 192 295 
1269 127 130 117 292 
1270 71 89 254 290 
1271 195 194 185 294 
1272 184 170 185 305 
1273 168 184 183 268 
1274 141 154 152 287 
1275 203 184 268 305 
1276 176 179 178 278 
1277 224 225 222 271 
1278 137 255 120 280 
1279 245 211 221 275 
1280 156 160 207 276 
1281 207 88 83 276 
1282 161 144 254 290 
1283 100 94 101 297 
1284 175 192 191 295 
1285 186 206 168 292 
1286 106 103 104 294 
1287 194 182 185 302 
1288 229 228 230 293 
1289 125 118 129 305 
1290 72 90 209 285 
1291 253 159 113 277 
1292 235 227 244 284 
1293 49 203 118 305 
1294 232 214 252 269 
1295 256 248 108 283 
1296 220 241 223 289 
1297 30 108 111 256 
1298 203 184 168 268 
1299 219 272 75 304 
1300 12 255 87 84 
1301 88 26 207 83 
1302 107 208 171 281 
1303 89 17 71 254 
1304 35 253 113 95 
1305 131 49 118 305 
1306 251 213 242 299 
1307 253 95 246 277 
1308 135 114 210 282 
1309 138 256 111 283 
1310 39 114 96 210 
1311 71 254 215 290 
1312 182 183 184 302 
1313 220 211 219 272 
1314 73 88 18 146 
1315 44 107 112 208 
1316 96 202 210 282 
1317 209 21 90 72 
1318 84 247 255 280 
1319 139 131 125 305 
1320 207 83 169 276 
1321 209 132 172 285 
1322 255 137 87 280 
1323 75 81 77 272 
1324 88 160 18 146 
1325 253 217 155 277 
1326 189 181 188 286 
1327 218 120 255 280 
1328 49 170 203 305 
1329 190 208 143 281 
1330 131 170 49 305 
1331 233 239 226 300 
1332 170 131 210 282 
1333 199 189 167 301 
1334 243 254 144 290 
1335 50 131 135 210 
1336 116 97 107 281 
1337 207 198 156 276 
1338 72 209 201 285 
1339 45 209 136 132 
1340 88 207 160 276 
1341 145 38 159 109 
1342 97 157 36 112 
1343 27 122 110 135 
1344 98 133 29 111 
1345 74 87 11 134 
1346 86 9 136 123 
1347 253 68 159 155 
1348 139 122 131 282 
1349 108 115 98 283 
1350 140 132 123 285 
1351 169 207 26 83 
1352 162 208 112 281 
1353 216 256 119 283 
1354 215 71 17 254 
1355 161 254 89 290 
1356 119 138 256 56 
1357 138 29 133 111 
1358 87 137 11 134 
1359 114 27 110 135 
1360 90 9 136 86 
1361 158 20 89 161 
1362 112 157 36 162 
1363 113 159 38 109 
1364 30 108 256 248 
1365 145 155 164 277 
1366 137 255 51 120 
1367 207 57 160 156 
1368 20 85 158 89 
1369 90 136 209 285 
1370 73 92 83 276 
1371 255 12 247 84 
1372 131 282 170 305 
1373 146 156 163 276 
1374 44 171 107 208 
1375 92 85 71 290 
1376 164 143 157 281 
1377 224 244 227 296 
1378 184 302 268 305 
1379 202 39 96 210 
1380 181 187 188 303 
1381 253 35 246 95 
1382 74 91 84 280 
1383 163 144 158 290 
1384 21 209 201 72 
1385 254 144 161 63 
1386 143 162 208 62 
1387 119 133 139 283 
1388 110 115 96 282 
1389 72 91 86 285 
1390 71 290 215 304 
1391 95 109 116 277 
1392 227 233 226 300 
1393 251 242 243 299 
1394 159 155 145 277 
1395 209 45 172 132 
1396 189 199 181 286 
1397 134 120 140 280 
1398 180 179 182 288 
1399 153 167 60 301 
1400 153 60 147 301 
1401 147 60 205 301 
1402 235 234 227 284 
1403 135 131 122 282 
1404 111 108 98 283 
1405 95 113 109 277 
1406 218 51 255 120 
1407 57 207 198 156 
1408 84 87 74 280 
1409 16 71 215 304 
1410 50 170 131 210 
1411 68 253 217 155 
1412 203 170 184 305 
1413 138 133 119 283 
1414 205 60 167 301 
1415 110 96 114 282 
1416 254 243 144 63 
1417 156 146 160 276 
1418 112 107 97 281 
1419 88 73 83 276 
1420 244 224 223 296 
1421 208 190 143 62 
1422 16 219 75 304 
1423 137 120 134 280 
1424 56 256 119 216 
1425 123 132 136 285 
1426 71 85 89 290 
1427 162 157 143 281 
1428 161 158 144 290 
1429 72 86 90 285 
1430 181 180 187 303 
1431 147 149 153 301 
1432 16 75 71 304 
1433 215 219 16 304 
1434 211 14 15 81 
1435 71 75 76 304 
1436 23 24 78 165 
1437 166 41 42 102 
1438 247 218 255 280 
1439 142 149 148 298 
1440 94 193 43 42 
1441 213 150 65 66 
1442 107 171 44 43 
1443 32 212 33 105 
1444 34 33 238 99 
1445 71 17 16 215 
1446 253 246 217 277 
1447 26 25 169 83 
1448 209 172 201 285 
1449 16 15 75 219 
1450 173 25 24 70 
1451 215 254 243 290 
1452 170 210 202 282 
1453 216 248 256 283 
1454 167 59 153 60 
1455 48 168 47 128 
1456 215 241 219 304 
1457 53 214 54 121 
1458 31 32 93 240 
1459 246 35 34 95 
1460 45 172 132 46 
1461 41 195 40 103 
1462 58 57 198 156 
1463 190 171 208 281 
1464 108 30 31 248 
1465 131 118 125 305 
1466 207 169 198 276 
1467 218 51 120 52 
1468 39 96 40 202 
1469 12 13 247 84 
1470 245 13 14 69 
1471 63 243 144 64 
1472 201 22 21 72 
1473 22 23 79 200 
1474 62 190 143 61 
1475 18 19 73 146 
1476 67 68 217 155 
1477 131 49 170 50 
1478 56 119 55 216 
1479 157 37 97 36 
1480 109 145 38 37 
1481 10 9 86 123 
1482 122 28 27 110 
1483 29 28 133 98 
1484 11 10 74 134 
1485 182 184 185 302 
1486 135 114 6 210 
1487 111 138 5 256 
1488 3 89 161 254 
1489 159 7 253 113 
1490 8 112 162 208 
1491 136 209 2 90 
1492 137 1 255 87 
1493 160 4 207 88 
1494 205 167 189 301 
1495 19 20 85 158 
1496 61 205 147 60 
1497 58 204 59 141 
1498 66 67 249 142 
1499 54 250 55 124 
1500 49 203 48 118 
1501 64 251 151 65 
1502 117 47 46 206 
1503 126 53 252 52 
1504 209 21 2 90 
1505 39 6 114 210 
1506 89 3 17 254 
1507 35 253 7 113 
1508 1 12 255 87 
1509 5 30 111 256 
1510 4 26 207 88 
1511 112 8 44 208 
1512 160 18 4 88 
1513 138 5 29 111 
1514 114 6 27 135 
1515 256 138 5 56 
1516 50 135 6 210 
1517 255 51 1 137 
1518 45 209 2 136 
1519 112 36 8 162 
1520 113 159 7 38 
1521 2 9 136 90 
1522 137 11 1 87 
1523 253 68 7 159 
1524 20 3 89 161 
1525 161 3 254 63 
1526 207 57 4 160 
1527 208 162 8 62 
1528 281 298 164 148 
1529 164 298 281 261 
1530 164 298 155 148 
1531 155 298 164 277 
1532 283 305 282 139 
1533 282 305 283 260 
1534 302 265 194 288 
1535 302 194 265 294 
1536 283 110 115 98 
1537 283 115 110 282 
1538 283 122 110 133 
1539 283 110 122 282 
1540 174 257 278 266 
1541 174 177 278 176 
1542 278 177 174 266 
1543 296 222 289 271 
1544 296 289 222 223 
1545 304 220 289 241 
1546 304 289 220 272 
1547 278 174 175 257 
1548 175 174 278 176 
1549 175 295 278 257 
1550 278 295 175 176 
589 125 260 124 283 
590 126 218 269 280 
591 127 126 259 280 
592 126 127 259 269 
593 124 283 260 293 
594 126 269 259 280 
595 281 298 147 301 
596 148 147 281 298 
597 261 298 281 301 
598 252 126 218 269 
599 259 269 232 280 
600 218 232 269 280 
601 124 260 125 293 
602 175 257 174 273 
603 174 257 266 270 
604 216 283 124 293 
605 257 270 174 273 
606 148 147 143 281 
607 221 220 222 257 
608 196 266 262 270 
609 77 270 272 273 
610 250 216 124 293 
611 263 267 225 293 
612 77 272 82 273 
613 196 262 266 287 
614 225 229 263 293 
615 220 257 221 272 
616 228 225 267 293 
617 220 222 257 289 
618 221 272 257 275 
619 119 125 124 283 
620 221 257 222 291 
621 225 228 229 293 
622 261 281 190 301 
623 225 267 263 271 
624 147 190 281 301 
625 237 259 232 280 
626 178 266 258 286 
627 84 275 247 280 
628 252 218 232 269 
629 174 266 177 270 
630 175 174 165 273 
631 77 78 270 273 
632 174 270 165 273 
633 232 269 259 291 
634 84 69 247 275 
635 127 120 126 280 
636 247 69 245 275 
637 77 82 78 273 
638 258 296 271 300 
639 196 177 266 270 
640 232 259 237 291 
641 225 263 229 291 
642 237 232 218 280 
643 80 275 84 280 
644 260 283 231 293 
645 271 296 226 300 
646 225 271 263 291 
647 105 274 265 279 
648 190 286 261 301 
649 147 190 143 281 
650 250 124 121 293 
651 101 265 105 274 
652 258 266 178 278 
653 260 125 293 305 
654 179 183 263 278 
655 106 105 101 265 
656 263 278 183 295 
657 218 126 120 280 
658 178 286 258 303 
659 221 275 257 291 
660 80 259 275 280 
661 224 226 271 296 
662 220 257 272 289 
663 73 146 85 290 
664 277 284 217 298 
665 105 265 106 279 
666 257 271 222 291 
667 124 125 129 293 
668 266 286 199 287 
669 183 179 263 288 
670 82 273 272 275 
671 196 174 177 270 
672 105 212 274 279 
673 72 201 273 285 
674 179 278 263 288 
675 125 129 293 305 
676 216 119 124 283 
677 216 231 283 293 
678 80 69 84 275 
679 222 271 257 289 
680 226 267 271 300 
681 183 292 263 295 
682 258 288 178 303 
683 258 278 178 288 
684 85 146 158 290 
685 129 121 124 293 
686 231 260 267 279 
687 250 121 214 293 
688 264 286 266 287 
689 247 275 237 280 
690 257 272 270 273 
691 274 279 212 300 
692 127 259 269 292 
693 234 217 277 284 
694 175 257 273 295 
695 179 191 183 278 
696 169 83 270 276 
697 183 268 263 292 
698 72 201 79 273 
699 199 287 286 301 
700 98 110 133 283 
701 188 261 190 286 
702 191 183 278 295 
703 129 269 121 293 
704 196 276 262 287 
705 263 183 288 302 
706 178 181 286 303 
707 100 261 116 281 
708 268 293 129 305 
709 169 83 70 270 
710 261 274 300 303 
711 200 79 201 273 
712 258 271 267 300 
713 231 267 260 293 
714 80 72 273 285 
715 261 300 284 303 
716 259 285 192 292 
717 169 70 173 270 
718 234 274 261 277 
719 248 279 108 283 
720 274 284 261 300 
721 78 165 270 273 
722 237 275 259 280 
723 263 269 229 291 
724 234 277 261 284 
725 196 177 197 266 
726 80 273 259 285 
727 226 267 225 271 
728 86 134 123 280 
729 157 97 109 277 
730 150 213 264 298 
731 201 192 273 285 
732 196 270 262 276 
733 178 199 266 286 
734 73 85 92 290 
735 196 266 197 287 
736 261 284 277 298 
737 263 268 183 302 
738 86 74 134 280 
739 157 109 145 277 
740 172 192 285 292 
741 261 274 234 284 
742 163 158 146 290 
743 261 277 164 298 
744 127 140 259 285 
745 116 261 100 277 
746 139 125 283 305 
747 91 80 259 285 
748 286 287 264 301 
749 163 262 152 290 
750 104 260 115 283 
751 104 115 260 282 
752 76 92 262 276 
753 259 273 192 285 
754 262 270 76 276 
755 83 76 270 276 
756 267 265 294 302 
757 190 261 188 281 
758 272 273 257 275 
759 76 262 92 304 
760 152 262 163 276 
761 248 240 93 279 
762 121 269 214 293 
763 236 225 229 291 
764 247 245 237 275 
765 139 133 122 283 
766 73 276 146 290 
767 231 279 248 283 
768 231 260 279 283 
769 189 286 190 301 
770 248 93 108 279 
771 267 288 265 302 
772 104 279 260 283 
773 169 270 196 276 
774 246 95 274 277 
775 180 178 288 303 
776 259 273 80 275 
777 235 217 284 298 
778 104 108 279 283 
779 213 150 249 298 
780 262 290 92 304 
781 127 259 140 280 
782 91 259 80 280 
783 150 142 249 298 
784 259 275 237 291 
785 246 95 99 274 
786 227 226 224 296 
787 212 279 239 300 
788 261 274 100 277 
789 86 91 74 280 
790 227 226 296 300 
791 157 145 164 277 
792 127 285 259 292 
793 157 97 277 281 
794 166 102 265 294 
795 259 292 192 295 
796 164 277 261 281 
797 116 261 277 281 
798 134 140 123 280 
799 261 281 100 297 
800 230 216 250 293 
801 127 132 285 292 
802 116 109 97 277 
803 264 266 289 299 
804 262 290 241 299 
805 235 264 213 298 
806 196 198 276 287 
807 166 265 102 297 
808 86 280 123 285 
809 234 235 217 284 
810 266 262 289 299 
811 115 260 282 283 
812 188 281 261 297 
813 129 268 269 293 
814 189 188 190 286 
815 79 80 72 273 
816 231 216 230 293 
817 205 190 147 301 
818 213 150 264 299 
819 234 246 274 277 
820 269 291 263 292 
821 95 100 274 277 
822 99 238 246 274 
823 229 269 263 293 
824 267 271 258 288 
825 262 241 290 304 
826 262 276 152 287 
827 264 287 266 299 
828 266 287 262 299 
829 194 288 265 303 
830 73 92 276 290 
831 261 297 274 303 
832 263 271 267 288 
833 132 172 285 292 
834 263 292 291 295 
835 262 276 92 290 
836 163 146 276 290 
837 152 290 262 299 
838 200 201 192 273 
839 163 276 262 290 
840 140 280 259 285 
841 265 279 274 300 
842 83 76 70 270 
843 259 280 91 285 
844 104 282 260 294 
845 139 122 282 283 
846 154 149 264 301 
847 232 229 269 291 
848 266 270 257 289 
849 259 291 269 292 
850 76 270 262 304 
851 154 264 287 301 
852 243 241 290 299 
853 260 283 125 305 
854 261 286 188 297 
855 262 270 266 289 
856 264 296 244 299 
857 156 152 276 287 
858 154 149 150 264 
859 116 277 97 281 
860 235 284 264 298 
861 192 273 259 295 
862 169 173 196 270 
863 185 282 294 302 
864 213 264 244 299 
865 188 297 286 303 
866 107 100 116 281 
867 178 266 177 278 
868 140 123 280 285 
869 176 178 177 278 
870 188 171 281 297 
871 259 291 292 295 
872 164 157 277 281 
873 260 267 294 302 
874 178 181 199 286 
875 261 286 297 303 
876 100 281 107 297 
877 274 265 300 303 
878 186 292 183 295 
879 235 244 213 264 
880 100 274 261 297 
881 150 264 149 298 
882 127 132 140 285 
883 154 264 150 299 
884 86 91 280 285 
885 241 289 262 299 
886 235 244 264 284 
887 102 265 101 297 
888 258 284 300 303 
889 152 144 290 299 
890 231 228 267 293 
891 249 235 213 298 
892 231 267 239 279 
893 199 167 287 301 
894 143 164 148 281 
895 198 156 276 287 
896 187 265 166 297 
897 144 163 152 290 
898 165 173 70 270 
899 102 106 265 294 
900 155 277 217 298 
901 197 266 199 287 
902 132 117 172 292 
903 231 240 248 279 
904 232 236 229 291 
905 260 294 282 302 
906 99 105 238 274 
907 233 274 212 300 
908 106 101 102 265 
909 76 272 270 304 
910 238 105 212 274 
911 226 228 225 267 
912 200 165 78 273 
913 242 296 289 299 
914 260 279 104 294 
915 265 279 267 294 
916 78 165 70 270 
917 186 192 172 292 
918 91 72 80 285 
919 258 271 278 288 
920 142 155 217 298 
921 267 279 260 294 
922 166 265 194 294 
923 198 141 156 287 
924 249 142 217 298 
925 166 103 102 294 
926 166 195 103 294 
927 263 278 271 288 
928 182 288 183 302 
929 166 187 194 265 
930 261 284 286 303 
931 95 100 99 274 
932 258 266 264 286 
933 227 296 284 300 
934 154 287 153 301 
935 274 297 265 303 
936 78 79 200 273 
937 93 104 108 279 
938 104 115 108 283 
939 242 244 296 299 
940 185 282 302 305 
941 77 270 76 272 
942 81 211 245 275 
943 265 267 258 288 
944 81 82 272 275 
945 224 226 225 271 
946 264 266 258 296 
947 107 281 171 297 
948 94 166 102 297 
949 264 289 266 296 
950 129 268 130 269 
951 206 172 117 292 
952 185 282 202 294 
953 104 96 282 294 
954 233 212 239 300 
955 76 83 92 276 
956 119 139 125 283 
957 204 141 198 287 
958 104 96 115 282 
959 93 212 105 279 
960 262 287 152 299 
961 141 204 153 287 
962 241 262 289 304 
963 257 275 273 291 
964 242 223 289 296 
965 96 202 282 294 
966 289 296 264 299 
967 197 177 199 266 
968 186 183 191 295 
969 94 193 166 297 
970 240 212 93 279 
971 181 178 180 303 
972 156 152 163 276 
973 224 222 223 296 
974 81 245 69 275 
975 225 236 271 291 
976 91 80 84 280 
977 224 271 222 296 
978 238 234 246 274 
979 82 80 273 275 
980 231 228 239 267 
981 127 269 130 292 
982 167 153 204 287 
983 264 284 244 296 
984 258 267 265 300 
985 213 244 242 299 
986 81 211 14 245 
987 257 291 273 295 
988 265 288 258 303 
989 186 192 292 295 
990 187 194 265 303 
991 96 103 202 294 
992 94 107 171 297 
993 130 269 268 292 
994 195 202 103 294 
995 120 127 140 280 
996 130 268 128 292 
997 179 178 278 288 
998 234 284 274 300 
999 200 23 78 165 
1000 265 274 101 297 
1001 273 275 259 291 
1002 180 288 194 303 
1003 168 268 183 292 
1004 116 100 95 277 
1005 238 33 105 99 
1006 267 293 263 302 
1007 239 279 267 300 
1008 235 249 217 298 
1009 183 182 179 288 
1010 106 279 265 294 
1011 196 197 198 287 
1012 41 166 195 103 
1013 150 251 151 299 
1014 105 212 33 238 
1015 127 117 132 292 
1016 117 128 206 292 
1017 211 272 221 275 
1018 126 130 127 269 
1019 41 166 103 102 
1020 14 81 245 69 
1021 94 171 193 297 
1022 156 141 152 287 
1023 267 263 288 302 
1024 165 173 24 70 
1025 286 298 261 301 
1026 150 213 251 299 
1027 79 23 78 200 
1028 220 221 211 272 
1029 262 272 270 289 
1030 258 271 266 278 
1031 154 287 264 299 
1032 257 271 266 289 
1033 260 302 282 305 
1034 259 273 291 295 
1035 205 189 190 301 
1036 166 42 94 102 
1037 81 82 77 272 
1038 24 78 165 70 
1039 257 278 271 291 
1040 178 199 177 266 
1041 284 296 258 300 
1042 212 32 93 105 
1043 168 206 128 292 
1044 243 290 144 299 
1045 128 118 203 268 
1046 187 265 297 303 
1047 258 286 284 303 
1048 32 93 240 212 
1049 270 272 257 289 
1050 94 193 42 166 
1051 167 153 287 301 
1052 266 271 257 278 
1053 220 272 219 304 
1054 149 298 264 301 
1055 167 197 199 287 
1056 233 234 274 300 
1057 252 121 126 269 
1058 241 242 289 299 
1059 179 180 178 288 
1060 168 128 268 292 
1061 154 153 149 301 
1062 257 278 291 295 
1063 211 81 272 275 
1064 129 128 130 268 
1065 169 25 173 70 
1066 227 284 233 300 
1067 266 271 258 296 
1068 191 176 175 295 
1069 263 271 278 291 
1070 248 31 93 240 
1071 270 272 262 304 
1072 128 203 168 268 
1073 214 230 250 293 
1074 247 13 245 69 
1075 129 130 121 269 
1076 258 284 264 296 
1077 171 107 94 43 
1078 171 94 193 43 
1079 215 290 241 304 
1080 31 93 108 248 
1081 264 284 258 286 
1082 243 144 151 299 
1083 233 284 234 300 
1084 214 121 252 269 
1085 220 219 241 304 
1086 25 169 83 70 
1087 75 77 76 272 
1088 75 272 76 304 
1089 214 269 229 293 
1090 263 291 278 295 
1091 222 271 236 291 
1092 221 222 236 291 
1093 266 289 271 296 
1094 233 227 234 284 
1095 185 170 282 305 
1096 195 40 103 202 
1097 186 168 183 292 
1098 13 247 84 69 
1099 219 211 15 272 
1100 268 269 263 292 
1101 211 81 15 272 
1102 79 201 22 200 
1103 151 251 243 299 
1104 239 267 226 300 
1105 221 237 275 291 
1106 194 185 294 302 
1107 82 69 80 275 
1108 194 288 182 302 
1109 15 75 219 272 
1110 96 103 40 202 
1111 246 34 238 99 
1112 272 289 262 304 
1113 15 81 75 272 
1114 34 246 95 99 
1115 268 263 293 302 
1116 191 278 176 295 
1117 265 267 279 300 
1118 265 258 300 303 
1119 260 293 267 302 
1120 100 101 274 297 
1121 222 225 236 271 
1122 190 188 171 281 
1123 106 104 279 294 
1124 146 19 73 85 
1125 72 201 22 79 
1126 220 223 222 289 
1127 193 187 166 297 
1128 242 244 223 296 
1129 102 103 106 294 
1130 165 174 173 270 
1131 175 273 192 295 
1132 94 102 101 297 
1133 151 251 150 65 
1134 166 194 195 294 
1135 243 241 215 290 
1136 141 204 59 153 
1137 231 230 228 293 
1138 152 287 154 299 
1139 152 151 144 299 
1140 226 239 228 267 
1141 99 101 105 274 
1142 146 19 85 158 
1143 233 238 212 274 
1144 252 53 126 121 
1145 65 251 150 213 
1146 71 92 290 304 
1147 147 298 149 301 
1148 46 172 117 206 
1149 117 47 206 128 
1150 149 147 148 298 
1151 167 59 204 153 
1152 204 58 198 141 
1153 70 77 78 270 
1154 53 252 214 121 
1155 168 206 47 128 
1156 117 132 172 46 
1157 151 154 150 299 
1158 232 237 236 291 
1159 260 293 268 305 
1160 218 126 252 52 
1161 217 249 67 142 
1162 260 268 302 305 
1163 187 180 194 303 
1164 123 86 10 134 
1165 175 165 200 273 
1166 109 157 37 97 
1167 145 109 157 37 
1168 133 28 122 110 
1169 74 10 86 134 
1170 28 133 98 110 
1171 154 141 153 287 
1172 156 198 58 141 
1173 242 241 243 299 
1174 126 218 120 52 
1175 185 202 195 294 
1176 81 69 82 275 
1177 104 103 96 294 
1178 260 268 293 302 
1179 201 172 192 285 
1180 94 100 107 297 
1181 213 150 66 249 
1182 155 217 67 142 
1183 124 54 250 121 
1184 217 246 234 277 
1185 93 105 106 279 
1186 249 150 66 142 
1187 243 64 251 151 
1188 118 203 268 305 
1189 183 268 184 302 
1190 218 247 237 280 
1191 198 169 196 276 
1192 159 145 109 277 
1193 128 48 203 118 
1194 248 216 231 283 
1195 202 185 170 282 
1196 124 250 55 216 
1197 223 241 242 289 
1198 64 243 144 151 
1199 142 150 149 298 
1200 214 250 54 121 
1201 48 203 168 128 
1202 130 128 117 292 
1203 187 297 188 303 
1204 196 173 174 270 
1205 78 82 79 273 
1206 88 146 73 276 
1207 214 229 230 293 
1208 159 109 113 277 
1209 76 77 70 270 
1210 188 193 171 297 
1211 110 135 122 282 
1212 133 111 98 283 
1213 240 239 212 279 
1214 119 124 55 216 
1215 263 269 268 293 
1216 192 175 200 273 
1217 206 186 172 292 
1218 71 76 92 304 
1219 221 236 237 291 
1220 114 135 110 282 
1221 181 188 286 303 
1222 133 138 111 283 
1223 88 160 146 276 
1224 142 148 155 298 
1225 87 134 74 280 
1226 205 147 190 61 
1227 80 79 82 273 
1228 139 282 131 305 
1229 147 143 190 61 
1230 118 268 129 305 
1231 97 157 112 281 
1232 244 284 227 296 
1233 197 204 198 287 
1234 238 233 234 274 
1235 137 134 87 280 
1236 180 182 194 288 
1237 231 239 240 279 
1238 136 86 123 285 
1239 157 162 112 281 
1240 161 89 158 290 
1241 99 100 101 274 
1242 89 85 158 290 
1243 179 176 191 278 
1244 184 185 302 305 
1245 136 90 86 285 
1246 129 118 128 268 
1247 159 253 155 277 
1248 135 210 131 282 
1249 111 256 108 283 
1250 199 286 189 301 
1251 106 104 93 279 
1252 284 286 264 298 
1253 261 286 284 298 
1254 95 253 113 277 
1255 126 121 130 269 
1256 197 167 204 287 
1257 232 229 214 269 
1258 112 208 107 281 
1259 138 119 256 283 
1260 96 210 114 282 
1261 221 237 245 275 
1262 84 255 87 280 
1263 187 193 188 297 
1264 151 152 154 299 
1265 264 298 286 301 
1266 136 132 209 285 
1267 162 143 208 281 
1268 186 191 192 295 
1269 127 130 117 292 
1270 71 89 254 290 
1271 195 194 185 294 
1272 184 170 185 305 
1273 168 184 183 268 
1274 141 154 152 287 
1275 203 184 268 305 
1276 176 179 178 278 
1277 224 225 222 271 
1278 137 255 120 280 
1279 245 211 221 275 
1280 156 160 207 276 
1281 207 88 83 276 
1282 161 144 254 290 
1283 100 94 101 297 
1284 175 192 191 295 
1285 186 206 168 292 
1286 106 103 104 294 
1287 194 182 185 302 
1288 229 228 230 293 
1289 125 118 129 305 
1290 72 90 209 285 
1291 253 159 113 277 
1292 235 227 244 284 
1293 49 203 118 305 
1294 232 214 252 269 
1295 256 248 108 283 
1296 220 241 223 289 
1297 30 108 111 256 
1298 203 184 168 268 
1299 219 272 75 304 
1300 12 255 87 84 
1301 88 26 207 83 
1302 107 208 171 281 
1303 89 17 71 254 
1304 35 253 113 95 
1305 131 49 118 305 
1306 251 213 242 299 
1307 253 95 246 277 
1308 135 114 210 282 
1309 138 256 111 283 
1310 39 114 96 210 
1311 71 254 215 290 
1312 182 183 184 302 
1313 220 211 219 272 
1314 73 88 18 146 
1315 44 107 112 208 
1316 96 202 210 282 
1317 209 21 90 72 
1318 84 247 255 280 
1319 139 131 125 305 
1320 207 83 169 276 
1321 209 132 172 285 
1322 255 137 87 280 
1323 75 81 77 272 
1324 88 160 18 146 
1325 253 217 155 277 
1326 189 181 188 286 
1327 218 120 255 280 
1328 49 170 203 305 
1329 190 208 143 281 
1330 131 170 49 305 
1331 233 239 226 300 
1332 170 131 210 282 
1333 199 189 167 301 
1334 243 254 144 290 
1335 50 131 135 210 
1336 116 97 107 281 
1337 207 198 156 276 
1338 72 209 201 285 
1339 45 209 136 132 
1340 88 207 160 276 
1341 145 38 159 109 
1342 97 157 36 112 
1343 27 122 110 135 
1344 98 133 29 111 
1345 74 87 11 134 
1346 86 9 136 123 
1347 253 68 159 155 
1348 139 122 131 282 
1349 108 115 98 283 
1350 140 132 123 285 
1351 169 207 26 83 
1352 162 208 112 281 
1353 216 256 119 283 
1354 215 71 17 254 
1355 161 254 89 290 
1356 119 138 256 56 
1357 138 29 133 111 
1358 87 137 11 134 
1359 114 27 110 135 
1360 90 9 136 86 
1361 158 20 89 161 
1362 112 157 36 162 
1363 113 159 38 109 
1364 30 108 256 248 
1365 145 155 164 277 
1366 137 255 51 120 
1367 207 57 160 156 
1368 20 85 158 89 
1369 90 136 209 285 
1370 73 92 83 276 
1371 255 12 247 84 
1372 131 282 170 305 
1373 146 156 163 276 
1374 44 171 107 208 
1375 92 85 71 290 
1376 164 143 157 281 
1377 224 244 227 296 
1378 184 302 268 305 
1379 202 39 96 210 
1380 181 187 188 303 
1381 253 35 246 95 
1382 74 91 84 280 
1383 163 144 158 290 
1384 21 209 201 72 
1385 254 144 161 63 
1386 143 162 208 62 
1387 119 133 139 283 
1388 110 115 96 282 
1389 72 91 86 285 
1390 71 290 215 304 
1391 95 109 116 277 
1392 227 233 226 300 
1393 251 242 243 299 
1394 159 155 145 277 
1395 209 45 172 132 
1396 189 199 181 286 
1397 134 120 140 280 
1398 180 179 182 288 
1399 153 167 60 301 
1400 153 60 147 301 
1401 147 60 205 301 
1402 235 234 227 284 
1403 135 131 122 282 
1404 111 108 98 283 
1405 95 113 109 277 
1406 218 51 255 120 
1407 57 207 198 156 
1408 84 87 74 280 
1409 16 71 215 304 
1410 50 170 131 210 
1411 68 253 217 155 
1412 203 170 184 305 
1413 138 133 119 283 
1414 205 60 167 301 
1415 110 96 114 282 
1416 254 243 144 63 
1417 156 146 160 276 
1418 112 107 97 281 
1419 88 73 83 276 
1420 244 224 223 296 
1421 208 190 143 62 
1422 16 219 75 304 
1423 137 120 134 280 
1424 56 256 119 216 
1425 123 132 136 285 
1426 71 85 89 290 
1427 162 157 143 281 
1428 161 158 144 290 
1429 72 86 90 285 
1430 181 180 187 303 
1431 147 149 153 301 
1432 16 75 71 304 
1433 215 219 16 304 
1434 211 14 15 81 
1435 71 75 76 304 
1436 23 24 78 165 
1437 166 41 42 102 
1438 247 218 255 280 
1439 142 149 148 298 
1440 94 193 43 42 
1441 213 150 65 66 
1442 107 171 44 43 
1443 32 212 33 105 
1444 34 33 238 99 
1445 71 17 16 215 
1446 253 246 217 277 
1447 26 25 169 83 
1448 209 172 201 285 
1449 16 15 75 219 
1450 173 25 24 70 
1451 215 254 243 290 
1452 170 210 202 282 
1453 216 248 256 283 
1454 167 59 153 60 
1455 48 168 47 128 
1456 215 241 219 304 
1457 53 214 54 121 
1458 31 32 93 240 
1459 246 35 34 95 
1460 45 172 132 46 
1461 41 195 40 103 
1462 58 57 198 156 
1463 190 171 208 281 
1464 108 30 31 248 
1465 131 118 125 305 
1466 207 169 198 276 
1467 218 51 120 52 
1468 39 96 40 202 
1469 12 13 247 84 
1470 245 13 14 69 
1471 63 243 144 64 
1472 201 22 21 72 
1473 22 23 79 200 
1474 62 190 143 61 
1475 18 19 73 146 
1476 67 68 217 155 
1477 131 49 170 50 
1478 56 119 55 216 
1479 157 37 97 36 
1480 109 145 38 37 
1481 10 9 86 123 
1482 122 28 27 110 
1483 29 28 133 98 
1484 11 10 74 134 
1485 182 184 185 302 
1486 135 114 6 210 
1487 111 138 5 256 
1488 3 89 161 254 
1489 159 7 253 113 
1490 8 112 162 208 
1491 136 209 2 90 
1492 137 1 255 87 
1493 160 4 207 88 
1494 205 167 189 301 
1495 19 20 85 158 
1496 61 205 147 60 
1497 58 204 59 141 
1498 66 67 249 142 
1499 54 250 55 124 
1500 49 203 48 118 
1501 64 251 151 65 
1502 117 47 46 206 
1503 126 53 252 52 
1504 209 21 2 90 
1505 39 6 114 210 
1506 89 3 17 254 
1507 35 253 7 113 
1508 1 12 255 87 
1509 5 30 111 256 
1510 4 26 207 88 
1511 112 8 44 208 
1512 160 18 4 88 
1513 138 5 29 111 
1514 114 6 27 135 
1515 256 138 5 56 
1516 50 135 6 210 
1517 255 51 1 137 
1518 45 209 2 136 
1519 112 36 8 162 
1520 113 159 7 38 
1521 2 9 136 90 
1522 137 11 1 87 
1523 253 68 7 159 
1524 20 3 89 161 
1525 161 3 254 63 
1526 207 57 4 160 
1527 208 162 8 62 
1528 281 298 164 148 
1529 164 298 281 261 
1530 164 298 155 148 
1531 155 298 164 277 
1532 283 305 282 139 
1533 282 305 283 260 
1534 302 265 194 288 
1535 302 194 265 294 
1536 283 110 115 98 
1537 283 115 110 282 
1538 283 122 110 133 
1539 283 110 122 282 
1540 174 257 278 266 
1541 174 177 278 176 
1542 278 177 174 266 
1543 296 222 289 271 
1544 296 289 222 223 
1545 304 220 289 241 
1546 304 289 220 272 
1547 278 174 175 257 
1548 175 174 278 176 
1549 175 295 278 257 
1550 278 295 175 176 
$EndElements
